<?xml version="1.0" standalone="no"?>
<!DOCTYPE svg PUBLIC "-//W3C//DTD SVG 20010904//EN"
 "http://www.w3.org/TR/2001/REC-SVG-20010904/DTD/svg10.dtd">
<svg version="1.0" xmlns="http://www.w3.org/2000/svg"
 width="560.000000pt" height="560.000000pt" viewBox="0 0 560.000000 560.000000"
 preserveAspectRatio="xMidYMid meet">
<metadata>
Created by potrace 1.16, written by Peter Selinger 2001-2019
</metadata>
<g transform="translate(0.000000,560.000000) scale(0.100000,-0.100000)"
fill="#000000" stroke="none">
<path d="M2534 5225 c-580 -74 -1085 -317 -1485 -715 -388 -387 -621 -835
-716 -1379 -24 -141 -27 -180 -27 -406 -1 -254 4 -311 45 -510 68 -329 192
-624 380 -906 115 -172 295 -371 464 -515 444 -377 1031 -593 1615 -594 516 0
996 145 1425 433 129 87 236 177 375 316 384 384 620 852 707 1401 25 162 25
575 0 740 -88 557 -345 1056 -743 1440 -389 375 -848 600 -1394 685 -148 23
-503 28 -646 10z m646 -30 c554 -84 1046 -336 1436 -736 354 -364 578 -803
672 -1319 24 -133 26 -168 26 -415 1 -285 -10 -390 -65 -610 -68 -269 -186
-537 -341 -770 -117 -177 -193 -268 -344 -415 -391 -381 -872 -615 -1424 -692
-123 -17 -515 -17 -635 0 -300 44 -527 113 -790 242 -688 336 -1188 984 -1344
1738 -70 338 -67 695 10 1050 26 119 93 325 148 451 359 828 1148 1400 2056
1491 127 12 470 4 595 -15z"/>
<path d="M2595 5114 c-804 -85 -1488 -535 -1883 -1239 -128 -230 -228 -532
-273 -830 -18 -118 -19 -529 -1 -645 86 -563 319 -1022 718 -1411 181 -176
370 -308 604 -422 224 -110 415 -172 671 -219 169 -31 585 -33 749 -5 460 81
813 236 1150 506 479 384 794 948 874 1566 18 138 21 458 6 585 -118 954 -774
1738 -1690 2019 -221 68 -390 93 -655 96 -126 2 -248 1 -270 -1z m470 -24
c286 -32 568 -112 797 -226 622 -308 1061 -836 1257 -1509 81 -279 106 -668
61 -969 -23 -160 -22 -154 -66 -312 -229 -824 -903 -1473 -1734 -1670 -167
-40 -291 -56 -480 -61 -368 -11 -652 40 -984 174 -449 181 -850 518 -1107 928
-248 396 -369 814 -369 1275 0 656 260 1264 735 1721 373 358 862 588 1383
649 100 11 404 11 507 0z"/>
<path d="M2805 4985 c23 -8 83 -10 79 -3 -3 4 -24 8 -47 7 -23 0 -37 -2 -32
-4z"/>
<path d="M2698 4930 c-21 -23 -38 -50 -38 -61 0 -19 -3 -18 -35 10 -20 17 -41
31 -48 31 -7 0 2 -9 20 -20 35 -21 53 -48 53 -79 0 -12 4 -21 8 -21 5 0 14
-11 20 -25 6 -14 17 -25 24 -25 10 0 10 2 1 8 -7 4 -19 24 -28 45 -24 58 0
122 60 158 16 11 24 19 16 19 -8 0 -31 -18 -53 -40z"/>
<path d="M2915 4950 c10 -11 20 -20 23 -20 3 0 -3 9 -13 20 -10 11 -20 20 -23
20 -3 0 3 -9 13 -20z"/>
<path d="M2236 4912 c-2 -4 13 -6 35 -4 21 2 39 6 39 8 0 7 -69 4 -74 -4z"/>
<path d="M2327 4909 c7 -7 15 -10 18 -7 3 3 -2 9 -12 12 -14 6 -15 5 -6 -5z"/>
<path d="M2510 4910 c-18 -12 -2 -12 25 0 13 6 15 9 5 9 -8 0 -22 -4 -30 -9z"/>
<path d="M2774 4904 c-19 -15 -19 -15 1 -6 11 5 27 12 35 15 13 5 13 6 -1 6
-8 1 -24 -6 -35 -15z"/>
<path d="M2852 4909 c29 -16 40 -46 28 -71 -11 -22 -10 -22 4 -4 9 11 16 23
16 27 0 13 -42 59 -53 59 -7 0 -4 -5 5 -11z"/>
<path d="M3035 4900 c-3 -6 1 -7 9 -4 18 7 21 14 7 14 -6 0 -13 -4 -16 -10z"/>
<path d="M3117 4899 c29 -9 62 -43 76 -79 4 -11 6 -11 6 4 1 26 -62 86 -90 85
-20 -1 -19 -2 8 -10z"/>
<path d="M3294 4894 c-18 -14 -18 -15 4 -4 13 7 52 10 87 8 35 -2 61 0 58 5
-9 14 -128 8 -149 -9z"/>
<path d="M2177 4879 c-31 -24 -57 -69 -56 -96 0 -10 5 -4 10 14 5 17 28 48 51
67 45 39 41 49 -5 15z"/>
<path d="M2459 4879 l-24 -20 28 17 c15 9 27 18 27 20 0 8 -8 4 -31 -17z"/>
<path d="M2366 4880 c7 -8 14 -24 17 -35 4 -19 5 -19 6 1 0 12 -7 28 -16 35
-16 12 -17 12 -7 -1z"/>
<path d="M3486 4853 c13 -20 24 -42 24 -50 0 -26 -30 -72 -51 -78 -11 -4 -18
-9 -15 -12 11 -11 53 26 66 57 11 26 10 36 -5 70 -10 21 -23 41 -31 44 -7 3
-2 -11 12 -31z"/>
<path d="M2736 4864 c-14 -37 -5 -67 32 -100 48 -44 79 -75 97 -96 8 -10 19
-18 24 -18 10 0 -64 76 -119 123 -29 24 -32 31 -27 67 5 42 3 50 -7 24z"/>
<path d="M3020 4864 l-25 -15 25 7 c28 7 35 12 29 18 -2 2 -15 -2 -29 -10z"/>
<path d="M3248 4863 c-43 -50 -50 -109 -18 -161 11 -18 31 -37 45 -44 13 -6
26 -18 28 -27 4 -14 5 -14 6 1 1 10 -12 24 -30 33 -33 18 -59 67 -59 112 0 16
11 45 25 66 27 39 28 49 3 20z"/>
<path d="M2468 4857 c-16 -6 -28 -14 -28 -19 0 -12 13 -9 34 7 29 22 52 18 75
-11 12 -15 21 -22 21 -15 0 18 -38 51 -57 50 -10 -1 -30 -6 -45 -12z"/>
<path d="M2229 4829 l-24 -21 25 16 c35 23 76 20 94 -6 9 -12 16 -18 16 -12 0
19 -36 44 -62 44 -14 0 -36 -9 -49 -21z"/>
<path d="M3350 4841 c0 -4 11 -6 25 -3 14 2 25 6 25 8 0 2 -11 4 -25 4 -14 0
-25 -4 -25 -9z"/>
<path d="M2917 4820 c-9 -11 -13 -20 -7 -20 5 0 14 9 20 20 6 11 9 20 8 20 -2
0 -11 -9 -21 -20z"/>
<path d="M3301 4814 c-12 -15 -21 -38 -21 -51 0 -29 26 -83 41 -83 5 0 0 13
-12 29 -26 36 -21 83 13 111 13 11 18 19 11 20 -6 0 -21 -12 -32 -26z"/>
<path d="M3425 4820 c13 -14 16 -28 11 -50 -3 -19 -2 -29 4 -25 16 10 12 62
-6 79 -22 23 -30 20 -9 -4z"/>
<path d="M2840 4821 c0 -10 29 -36 34 -30 1 2 -6 12 -16 22 -10 9 -18 13 -18
8z"/>
<path d="M3112 4810 c0 -14 2 -19 5 -12 2 6 2 18 0 25 -3 6 -5 1 -5 -13z"/>
<path d="M2197 4793 c-4 -3 -7 -22 -7 -40 0 -37 39 -84 69 -82 12 0 11 2 -4 8
-38 16 -58 48 -53 86 4 38 4 38 -5 28z"/>
<path d="M1937 4765 c-20 -14 -37 -31 -37 -37 0 -7 13 1 29 16 15 15 41 31 57
36 21 6 23 9 9 9 -11 1 -37 -10 -58 -24z"/>
<path d="M2318 4770 c-10 -11 -14 -21 -10 -24 4 -2 15 7 25 20 21 28 10 31
-15 4z"/>
<path d="M2555 4771 c-3 -10 -15 -22 -27 -28 -14 -6 -25 -24 -32 -54 -10 -38
-17 -47 -56 -67 -25 -12 -34 -20 -20 -17 42 11 74 40 85 78 5 19 22 47 38 61
15 14 27 30 27 36 0 16 -8 12 -15 -9z"/>
<path d="M2057 4765 c12 -9 29 -26 38 -38 8 -12 15 -16 15 -9 0 17 -45 62 -62
62 -7 0 -3 -7 9 -15z"/>
<path d="M3090 4765 c-7 -9 -8 -15 -2 -15 5 0 12 7 16 15 3 8 4 15 2 15 -2 0
-9 -7 -16 -15z"/>
<path d="M3180 4755 c-7 -13 -29 -31 -49 -39 -20 -8 -30 -15 -23 -15 34 -2
106 59 89 75 -2 2 -10 -7 -17 -21z"/>
<path d="M3593 4773 c15 -2 37 -2 50 0 12 2 0 4 -28 4 -27 0 -38 -2 -22 -4z"/>
<path d="M2356 4755 c-11 -8 -15 -15 -9 -15 6 0 16 7 23 15 16 19 11 19 -14 0z"/>
<path d="M2624 4749 c-10 -12 -31 -27 -46 -35 -19 -10 -28 -22 -27 -37 2 -20
2 -21 6 -2 2 12 20 29 39 40 20 10 40 27 45 37 13 24 6 23 -17 -3z"/>
<path d="M3692 4743 c14 -15 31 -44 36 -63 8 -27 10 -30 11 -11 1 29 -33 87
-57 96 -11 4 -8 -3 10 -22z"/>
<path d="M3555 4752 c-12 -12 -2 -17 34 -17 22 0 37 3 35 6 -5 9 -63 17 -69
11z"/>
<path d="M3380 4741 c0 -14 28 -33 42 -28 8 4 7 6 -4 6 -10 1 -18 8 -18 16 0
8 -4 15 -10 15 -5 0 -10 -4 -10 -9z"/>
<path d="M3020 4726 c0 -7 -9 -25 -21 -40 -11 -14 -16 -26 -12 -26 5 0 19 18
32 40 12 22 17 40 12 40 -6 0 -11 -6 -11 -14z"/>
<path d="M1929 4709 c-17 -17 -23 -19 -30 -8 -5 8 -9 10 -9 4 0 -32 18 -34 45
-5 32 34 27 42 -6 9z"/>
<path d="M2730 4720 c8 -5 20 -10 25 -10 6 0 3 5 -5 10 -8 5 -19 10 -25 10 -5
0 -3 -5 5 -10z"/>
<path d="M2015 4696 c10 -14 19 -26 22 -26 7 0 -17 39 -28 46 -6 3 -3 -5 6
-20z"/>
<path d="M2791 4673 c38 -64 67 -82 129 -82 30 -1 61 3 67 7 7 4 -16 6 -50 4
-56 -4 -66 -1 -94 22 -17 14 -36 39 -43 56 -7 16 -17 30 -22 30 -5 0 1 -17 13
-37z"/>
<path d="M1705 4688 c-38 -21 -93 -93 -81 -105 3 -3 6 -1 6 5 0 16 51 73 85
93 32 20 24 26 -10 7z"/>
<path d="M1803 4687 c16 -7 35 -23 42 -37 8 -14 14 -19 15 -12 0 19 -46 62
-67 62 -12 -1 -9 -5 10 -13z"/>
<path d="M2140 4683 c6 -13 20 -27 33 -33 20 -10 21 -10 4 4 -10 8 -25 23 -33
33 -14 17 -14 16 -4 -4z"/>
<path d="M3059 4678 c-6 -13 -21 -34 -33 -48 l-21 -25 24 20 c22 19 57 75 47
75 -3 0 -11 -10 -17 -22z"/>
<path d="M3647 4672 c-4 -22 -15 -35 -32 -42 -30 -11 -33 -20 -4 -13 25 7 52
46 47 70 -3 12 -6 7 -11 -15z"/>
<path d="M3843 4693 c9 -2 25 -2 35 0 9 3 1 5 -18 5 -19 0 -27 -2 -17 -5z"/>
<path d="M2107 4668 c-4 -14 -19 -40 -33 -57 -14 -17 -23 -39 -21 -48 4 -15 5
-14 6 3 0 12 8 27 17 35 21 17 46 68 41 82 -2 7 -7 0 -10 -15z"/>
<path d="M3795 4680 c-3 -6 1 -7 9 -4 18 7 21 14 7 14 -6 0 -13 -4 -16 -10z"/>
<path d="M3940 4677 c37 -14 80 -67 80 -99 0 -11 -5 -28 -10 -39 -7 -12 -7
-19 -1 -19 6 0 13 15 16 34 11 57 -32 119 -90 130 -27 6 -27 5 5 -7z"/>
<path d="M2288 4663 c6 -2 18 -2 25 0 6 3 1 5 -13 5 -14 0 -19 -2 -12 -5z"/>
<path d="M3346 4655 c4 -8 8 -15 10 -15 2 0 4 7 4 15 0 8 -4 15 -10 15 -5 0
-7 -7 -4 -15z"/>
<path d="M3759 4653 c-13 -16 -12 -17 4 -4 16 13 21 21 13 21 -2 0 -10 -8 -17
-17z"/>
<path d="M2023 4633 c-4 -10 -12 -22 -20 -26 -7 -4 -13 -13 -13 -20 1 -14 50
39 50 54 0 15 -10 10 -17 -8z"/>
<path d="M2339 4631 c13 -12 31 -21 40 -21 14 0 6 6 -51 35 -7 4 -2 -3 11 -14z"/>
<path d="M2526 4619 c-10 -17 -37 -40 -60 -51 -34 -16 -36 -18 -11 -13 31 7
70 37 87 68 17 32 3 28 -16 -4z"/>
<path d="M1767 4629 c7 -7 15 -10 18 -7 3 3 -2 9 -12 12 -14 6 -15 5 -6 -5z"/>
<path d="M2285 4608 c26 -32 55 -54 60 -46 1 2 -19 21 -44 43 l-46 40 30 -37z"/>
<path d="M3723 4634 c4 -4 -3 -19 -15 -33 l-23 -25 33 23 c37 26 38 27 15 35
-10 4 -14 4 -10 0z"/>
<path d="M1710 4608 c-27 -29 -35 -64 -22 -91 9 -19 10 -16 5 14 -4 28 0 41
22 67 30 36 27 44 -5 10z"/>
<path d="M3360 4619 c0 -19 47 -65 57 -56 3 4 1 7 -5 7 -7 0 -21 15 -32 33
-11 18 -20 25 -20 16z"/>
<path d="M3547 4623 c-4 -3 -7 -11 -7 -17 0 -6 5 -5 12 2 6 6 9 14 7 17 -3 3
-9 2 -12 -2z"/>
<path d="M3816 4605 c-14 -13 -26 -27 -26 -31 0 -4 13 4 28 19 30 29 88 37
110 15 8 -8 12 -8 12 -1 0 32 -89 31 -124 -2z"/>
<path d="M1806 4607 c3 -10 9 -15 12 -12 3 3 0 11 -7 18 -10 9 -11 8 -5 -6z"/>
<path d="M1856 4593 c-4 -18 -15 -37 -24 -43 -10 -5 -12 -10 -5 -10 18 0 45
46 41 67 -3 12 -7 8 -12 -14z"/>
<path d="M3310 4601 c0 -37 59 -102 92 -101 7 1 -1 7 -18 14 -20 9 -38 29 -52
57 -12 24 -22 38 -22 30z"/>
<path d="M3512 4575 c-7 -8 -9 -15 -4 -15 5 0 15 7 22 15 16 19 -1 19 -18 0z"/>
<path d="M3722 4570 c0 -14 2 -19 5 -12 2 6 2 18 0 25 -3 6 -5 1 -5 -13z"/>
<path d="M3951 4574 c0 -11 3 -14 6 -6 3 7 2 16 -1 19 -3 4 -6 -2 -5 -13z"/>
<path d="M1612 4540 c0 -19 2 -27 5 -17 2 9 2 25 0 35 -3 9 -5 1 -5 -18z"/>
<path d="M1800 4555 c-7 -9 -8 -15 -2 -15 5 0 12 7 16 15 3 8 4 15 2 15 -2 0
-9 -7 -16 -15z"/>
<path d="M3555 4540 c-16 -16 -35 -30 -44 -30 -8 0 -11 -3 -8 -7 10 -10 55 17
72 44 21 31 15 29 -20 -7z"/>
<path d="M3608 4563 c6 -2 18 -2 25 0 6 3 1 5 -13 5 -14 0 -19 -2 -12 -5z"/>
<path d="M3443 4553 c9 -2 25 -2 35 0 9 3 1 5 -18 5 -19 0 -27 -2 -17 -5z"/>
<path d="M3935 4530 c-16 -17 -16 -20 -3 -15 9 4 19 13 22 21 7 19 2 18 -19
-6z"/>
<path d="M2001 4517 c-1 -10 -16 -32 -33 -49 -24 -22 -27 -27 -10 -19 28 15
56 56 49 73 -3 8 -6 6 -6 -5z"/>
<path d="M3720 4521 c0 -6 4 -13 10 -16 6 -3 7 1 4 9 -7 18 -14 21 -14 7z"/>
<path d="M3791 4518 c-1 -9 9 -27 22 -40 12 -13 17 -17 10 -8 -7 8 -16 27 -22
40 -6 17 -10 19 -10 8z"/>
<path d="M3886 4515 c4 -8 8 -15 10 -15 2 0 4 7 4 15 0 8 -4 15 -10 15 -5 0
-7 -7 -4 -15z"/>
<path d="M4065 4510 c-10 -11 -15 -20 -11 -20 11 0 39 30 34 36 -3 2 -13 -5
-23 -16z"/>
<path d="M4145 4501 c62 -28 81 -89 50 -155 -14 -29 -20 -33 -63 -35 -25 -1
-49 -5 -52 -8 -3 -3 16 -4 42 -2 46 4 47 3 42 -21 -6 -25 -6 -25 10 3 39 67
46 84 46 115 0 60 -52 123 -102 122 -7 0 5 -9 27 -19z"/>
<path d="M1560 4497 c19 -8 45 -29 58 -47 12 -18 22 -27 22 -20 0 9 5 9 18 -3
10 -10 22 -17 26 -17 19 0 -104 90 -130 95 -24 4 -23 3 6 -8z"/>
<path d="M3975 4501 c-6 -5 -23 -11 -40 -14 l-30 -4 31 -2 c16 0 39 6 50 14
10 8 14 15 9 15 -6 0 -15 -4 -20 -9z"/>
<path d="M2046 4477 c-8 -33 -71 -87 -101 -87 -14 0 -25 -4 -25 -9 0 -18 64 9
97 41 32 31 50 64 40 74 -2 3 -7 -6 -11 -19z"/>
<path d="M3453 4493 c9 -2 23 -2 30 0 6 3 -1 5 -18 5 -16 0 -22 -2 -12 -5z"/>
<path d="M1436 4457 c-15 -19 -26 -40 -26 -48 1 -8 8 0 17 16 8 17 22 38 31
48 8 9 12 17 9 17 -3 0 -17 -15 -31 -33z"/>
<path d="M1720 4471 c15 -13 38 -20 60 -20 l35 1 -35 7 c-19 4 -46 13 -60 20
l-25 12 25 -20z"/>
<path d="M3759 4466 c27 -29 33 -32 25 -13 -2 7 -14 19 -27 26 -21 13 -21 12
2 -13z"/>
<path d="M4095 4480 c27 -12 43 -12 25 0 -8 5 -22 9 -30 9 -10 0 -8 -3 5 -9z"/>
<path d="M1840 4455 c14 -8 32 -14 40 -14 8 0 0 6 -19 14 -42 19 -54 19 -21 0z"/>
<path d="M1503 4430 c57 -17 73 -53 42 -97 -8 -12 -11 -24 -6 -27 10 -6 31 45
31 75 0 23 -46 59 -74 58 -17 -1 -15 -2 7 -9z"/>
<path d="M3841 4415 c0 -29 18 -65 34 -65 4 0 2 7 -5 15 -7 8 -16 30 -20 48
l-8 32 -1 -30z"/>
<path d="M1446 4414 c-9 -24 -2 -26 12 -4 7 11 8 20 3 20 -5 0 -12 -7 -15 -16z"/>
<path d="M1773 4410 c-35 -14 -27 -20 10 -8 17 6 34 13 36 14 8 7 -24 3 -46
-6z"/>
<path d="M1835 4400 c3 -4 14 -10 25 -13 11 -3 18 -2 15 3 -3 4 -14 10 -25 13
-11 3 -18 2 -15 -3z"/>
<path d="M4110 4382 c-23 -22 -23 -24 -3 -13 12 6 25 16 28 22 13 20 0 15 -25
-9z"/>
<path d="M3792 4369 c6 -16 12 -29 13 -27 6 6 -8 58 -16 58 -4 0 -3 -14 3 -31z"/>
<path d="M1410 4386 c0 -2 7 -9 15 -16 9 -7 15 -8 15 -2 0 5 -7 12 -15 16 -8
3 -15 4 -15 2z"/>
<path d="M1616 4365 c-9 -26 -7 -32 5 -12 6 10 9 21 6 23 -2 3 -7 -2 -11 -11z"/>
<path d="M4037 4369 c7 -7 15 -10 18 -7 3 3 -2 9 -12 12 -14 6 -15 5 -6 -5z"/>
<path d="M1322 4360 c44 -8 75 -33 81 -64 l4 -21 2 22 c2 31 -53 73 -92 72
-32 -1 -32 -1 5 -9z"/>
<path d="M4288 4363 c6 -2 18 -2 25 0 6 3 1 5 -13 5 -14 0 -19 -2 -12 -5z"/>
<path d="M3985 4339 c-16 -10 -25 -19 -19 -19 7 0 22 9 35 20 30 24 23 24 -16
-1z"/>
<path d="M4230 4350 c0 -5 7 -7 15 -4 8 4 15 8 15 10 0 2 -7 4 -15 4 -8 0 -15
-4 -15 -10z"/>
<path d="M4376 4335 c27 -14 51 -25 54 -25 12 1 -76 50 -89 50 -8 0 8 -11 35
-25z"/>
<path d="M1229 4329 c-22 -22 -49 -80 -48 -101 0 -7 7 5 15 27 8 22 26 52 41
67 31 32 24 39 -8 7z"/>
<path d="M3900 4330 c8 -5 24 -10 34 -10 26 0 18 6 -19 14 -22 5 -26 4 -15 -4z"/>
<path d="M1598 4324 c-4 -5 0 -18 8 -29 15 -20 17 -12 5 19 -4 11 -10 15 -13
10z"/>
<path d="M3821 4312 c12 -19 38 -37 44 -30 1 2 -11 14 -27 27 -28 23 -29 23
-17 3z"/>
<path d="M4027 4300 c-15 -12 -46 -25 -69 -30 l-43 -9 40 3 c34 3 136 56 108
56 -6 0 -22 -9 -36 -20z"/>
<path d="M1282 4284 c-12 -8 -22 -19 -22 -25 0 -5 9 0 20 11 23 23 42 25 72 9
15 -8 18 -17 14 -37 -5 -27 -5 -27 6 -3 11 20 9 26 -11 42 -28 23 -49 24 -79
3z"/>
<path d="M4276 4291 c-3 -4 5 -6 18 -4 13 3 37 -2 54 -11 44 -23 54 -19 12 4
-37 20 -75 26 -84 11z"/>
<path d="M4441 4280 c14 -31 19 -36 19 -24 0 6 -7 19 -16 30 -14 18 -14 18 -3
-6z"/>
<path d="M1558 4253 c6 -45 -15 -82 -53 -99 -20 -9 -24 -13 -12 -14 33 0 77
57 77 100 0 22 -4 41 -8 44 -4 2 -6 -11 -4 -31z"/>
<path d="M4237 4262 c-11 -11 -17 -34 -16 -58 l2 -39 6 42 c4 23 13 48 20 57
19 22 8 20 -12 -2z"/>
<path d="M1393 4244 c-6 -13 -7 -24 -3 -24 9 0 25 39 18 45 -2 2 -8 -7 -15
-21z"/>
<path d="M1622 4243 c-1 -17 -5 -40 -8 -50 -5 -17 -5 -17 6 0 6 9 9 32 7 50
l-4 32 -1 -32z"/>
<path d="M4151 4234 c0 -11 3 -14 6 -6 3 7 2 16 -1 19 -3 4 -6 -2 -5 -13z"/>
<path d="M4450 4196 c-5 -13 -19 -31 -32 -40 -12 -9 -18 -16 -12 -16 13 0 49
39 57 63 10 26 -2 20 -13 -7z"/>
<path d="M1251 4181 c12 -35 33 -55 51 -48 9 4 8 6 -3 6 -9 1 -24 17 -33 36
-21 43 -29 46 -15 6z"/>
<path d="M4370 4185 c-9 -11 -17 -12 -30 -5 -25 13 -30 13 -30 -4 0 -24 30
-46 58 -45 l27 2 -25 4 c-28 5 -50 21 -50 35 0 5 7 5 18 -1 17 -9 62 12 50 24
-3 3 -11 -1 -18 -10z"/>
<path d="M1181 4177 c-2 -30 28 -77 62 -97 41 -25 104 -25 136 -1 13 10 33 17
45 14 20 -3 20 -3 1 5 -14 7 -28 4 -47 -9 -32 -23 -88 -24 -128 -4 -30 16 -47
39 -61 84 -5 17 -8 20 -8 8z"/>
<path d="M1569 4129 c-35 -38 -39 -50 -8 -26 15 11 55 68 48 66 -2 0 -20 -18
-40 -40z"/>
<path d="M4182 4148 c7 -15 15 -23 17 -17 2 6 -4 18 -13 27 -15 15 -15 15 -4
-10z"/>
<path d="M1390 4144 c-18 -10 -20 -14 -8 -14 9 0 20 4 23 10 3 5 20 7 38 3 18
-3 30 -4 27 -1 -13 13 -58 14 -80 2z"/>
<path d="M4231 4155 c1 -19 18 -51 18 -35 0 8 -4 22 -9 30 -5 8 -9 11 -9 5z"/>
<path d="M1328 4123 c7 -3 16 -2 19 1 4 3 -2 6 -13 5 -11 0 -14 -3 -6 -6z"/>
<path d="M4473 4122 c-9 -6 -3 -13 18 -26 17 -10 34 -28 39 -39 5 -13 9 -16 9
-7 1 20 -9 32 -39 53 l-24 17 25 0 c33 0 68 -26 85 -64 9 -20 13 -25 14 -12 0
10 -15 33 -34 52 -33 33 -67 42 -93 26z"/>
<path d="M1080 4088 c-19 -13 -35 -30 -37 -38 -3 -10 -1 -9 7 3 6 9 28 26 48
37 20 10 32 19 26 20 -6 0 -26 -10 -44 -22z"/>
<path d="M1175 4098 c11 -6 31 -20 45 -32 20 -16 19 -14 -4 12 -17 17 -37 32
-45 32 -12 -1 -11 -3 4 -12z"/>
<path d="M1468 4083 c12 -2 30 -2 40 0 9 3 -1 5 -23 4 -22 0 -30 -2 -17 -4z"/>
<path d="M4182 4050 c0 -19 2 -27 5 -17 2 9 2 25 0 35 -3 9 -5 1 -5 -18z"/>
<path d="M3508 4023 c-27 -28 -138 -210 -138 -225 0 -16 22 -8 40 15 17 20 29
22 147 27 169 7 169 7 136 -37 -23 -30 -30 -34 -57 -28 -61 14 -171 17 -208 6
-53 -16 -78 -53 -78 -113 0 -41 5 -53 28 -75 24 -22 33 -25 80 -20 57 6 111
34 154 79 15 15 30 28 34 28 10 0 112 -76 151 -113 20 -19 38 -27 48 -23 15 5
14 9 -5 33 -12 16 -45 53 -74 83 -28 30 -55 61 -60 68 -5 8 7 29 33 58 33 38
71 115 71 146 0 4 -62 8 -137 8 -144 1 -148 2 -83 40 12 7 10 14 -14 39 -17
17 -33 31 -36 31 -3 0 -18 -12 -32 -27z m50 -309 c31 -9 28 -18 -15 -36 -60
-25 -91 -29 -133 -18 -44 12 -48 20 -24 44 16 16 124 22 172 10z"/>
<path d="M4240 4039 c0 -16 51 -59 77 -65 14 -4 34 -2 46 4 18 9 16 9 -15 5
-33 -5 -42 -1 -73 30 -19 19 -35 31 -35 26z"/>
<path d="M3176 4031 c-3 -5 -5 -28 -5 -52 0 -24 2 -180 5 -346 5 -331 9 -303
-42 -303 -7 0 -5 482 2 543 l7 47 -31 0 c-23 0 -30 -5 -33 -22 -2 -13 -2 -185
1 -383 5 -332 6 -360 23 -363 15 -3 23 13 18 41 0 4 28 7 62 7 l64 0 12 40
c17 57 31 59 31 6 0 -39 3 -46 19 -46 19 0 20 11 23 343 2 188 7 350 12 360 7
14 3 17 -27 17 -34 0 -35 -1 -42 -49 -4 -30 -2 -57 4 -69 7 -13 11 -104 11
-246 l0 -226 -31 0 -31 0 4 355 3 355 -27 0 c-15 0 -29 -4 -32 -9z"/>
<path d="M1031 4023 c-1 -6 -4 -20 -7 -30 -5 -17 -5 -17 6 0 6 10 9 23 6 30
-3 9 -5 9 -5 0z"/>
<path d="M1070 4015 c-6 -8 -10 -20 -7 -27 4 -8 6 -7 6 4 1 9 9 22 19 27 9 6
12 11 6 11 -6 0 -17 -7 -24 -15z"/>
<path d="M1140 4023 c8 -4 20 -13 27 -22 7 -9 13 -11 13 -5 0 15 -22 34 -39
33 -14 0 -14 -1 -1 -6z"/>
<path d="M4516 4015 c-3 -8 -16 -20 -28 -25 -15 -5 -17 -9 -7 -9 17 -1 56 36
47 44 -3 3 -8 -1 -12 -10z"/>
<path d="M4190 4003 c0 -22 83 -83 112 -83 7 0 -5 9 -28 19 -22 10 -50 31 -62
46 -12 15 -22 23 -22 18z"/>
<path d="M4430 3990 c8 -5 20 -10 25 -10 6 0 3 5 -5 10 -8 5 -19 10 -25 10 -5
0 -3 -5 5 -10z"/>
<path d="M1236 3974 c-11 -27 -7 -44 16 -67 l22 -22 -18 28 c-11 18 -15 38
-12 53 7 27 1 33 -8 8z"/>
<path d="M1182 3960 c0 -14 2 -19 5 -12 2 6 2 18 0 25 -3 6 -5 1 -5 -13z"/>
<path d="M1030 3965 c0 -2 7 -8 15 -15 12 -10 15 -10 15 2 0 8 -7 15 -15 15
-8 0 -15 -1 -15 -2z"/>
<path d="M1866 3923 c-9 -26 -16 -48 -16 -50 0 -2 121 -3 269 -3 205 0 272 -3
278 -12 10 -17 22 -138 16 -156 -5 -10 -56 -13 -267 -12 -143 1 -266 1 -273 1
-14 -1 -27 -24 -37 -63 l-6 -28 270 0 270 0 16 40 c21 52 33 51 31 -2 -2 -38
1 -43 21 -46 l22 -3 0 158 c0 87 4 173 9 191 l10 32 -299 0 -298 0 -16 -47z"/>
<path d="M4375 3935 c-16 -8 -23 -14 -15 -14 8 0 26 6 40 14 32 18 15 18 -25
0z"/>
<path d="M4437 3929 c7 -7 15 -10 18 -7 3 3 -2 9 -12 12 -14 6 -15 5 -6 -5z"/>
<path d="M4559 3933 c-1 -5 -1 -11 0 -16 1 -4 -9 -6 -21 -4 -13 2 -17 2 -11 0
10 -3 10 -10 2 -26 -12 -22 -12 -22 13 1 14 12 25 29 25 37 0 15 -6 21 -8 8z"/>
<path d="M4590 3930 c-9 -6 -10 -10 -3 -10 6 0 15 5 18 10 8 12 4 12 -15 0z"/>
<path d="M970 3920 c0 -6 9 -10 19 -10 11 0 23 -4 26 -10 3 -5 11 -10 18 -10
6 0 3 6 -8 13 -29 20 -55 28 -55 17z"/>
<path d="M4705 3911 c33 -20 66 -54 83 -86 7 -11 12 -14 12 -7 0 32 -83 112
-116 112 -5 0 5 -8 21 -19z"/>
<path d="M908 3909 c-10 -5 -23 -20 -29 -32 -11 -20 -9 -20 17 4 16 15 36 29
44 32 13 5 13 5 0 6 -8 0 -23 -4 -32 -10z"/>
<path d="M1191 3905 c0 -5 6 -19 14 -29 8 -11 15 -15 15 -10 0 6 -7 19 -15 30
-8 10 -14 15 -14 9z"/>
<path d="M1050 3837 c4 -41 5 -41 8 -8 2 18 0 37 -5 42 -5 5 -6 -11 -3 -34z"/>
<path d="M1271 3864 c0 -11 3 -14 6 -6 3 7 2 16 -1 19 -3 4 -6 -2 -5 -13z"/>
<path d="M4659 3856 c19 -7 44 -25 55 -40 20 -26 20 -28 4 -57 -21 -35 -15
-39 8 -4 14 21 14 30 4 54 -11 28 -63 62 -92 60 -7 0 3 -6 21 -13z"/>
<path d="M951 3847 c-14 -6 -26 -19 -29 -27 -3 -11 -1 -11 9 2 8 9 26 20 40
23 21 5 30 1 43 -16 13 -19 16 -20 16 -7 0 16 -28 38 -47 38 -4 0 -19 -6 -32
-13z"/>
<path d="M4507 3853 c-11 -10 -8 -91 3 -98 6 -4 2 -21 -10 -45 -31 -61 -27
-122 11 -165 40 -45 78 -65 121 -64 31 1 31 2 -8 8 -111 18 -165 121 -115 220
14 27 17 41 9 49 -5 5 -9 31 -7 56 3 25 4 46 3 46 0 0 -4 -3 -7 -7z"/>
<path d="M854 3835 c-3 -8 -4 -20 -2 -27 3 -7 7 -1 10 15 6 29 1 36 -8 12z"/>
<path d="M4570 3825 c-7 -14 -10 -28 -7 -32 4 -3 7 0 7 7 0 7 7 22 17 32 9 10
12 18 6 18 -5 0 -16 -11 -23 -25z"/>
<path d="M1267 3803 c-10 -59 -50 -101 -107 -112 -36 -7 -39 -9 -15 -10 69 -2
141 71 133 136 -3 24 -4 22 -11 -14z"/>
<path d="M1939 3823 c-18 -3 -29 -13 -37 -37 -7 -18 -12 -35 -12 -39 0 -4 106
-7 235 -7 l235 0 10 26 c25 64 31 62 -197 61 -115 0 -220 -2 -234 -4z"/>
<path d="M1206 3793 c-6 -14 -5 -15 5 -6 7 7 10 15 7 18 -3 3 -9 -2 -12 -12z"/>
<path d="M911 3784 c0 -11 3 -14 6 -6 3 7 2 16 -1 19 -3 4 -6 -2 -5 -13z"/>
<path d="M1010 3790 c0 -5 5 -10 10 -10 6 0 10 5 10 10 0 6 -4 10 -10 10 -5 0
-10 -4 -10 -10z"/>
<path d="M840 3754 c0 -16 5 -36 10 -44 6 -10 7 -2 3 25 -7 49 -13 58 -13 19z"/>
<path d="M1169 3749 c-23 -19 -23 -20 -2 -10 12 6 25 16 28 21 10 16 -1 12
-26 -11z"/>
<path d="M4783 3741 c-7 -20 -23 -37 -45 -46 -18 -8 -25 -14 -16 -15 26 0 81
53 77 74 -3 14 -7 10 -16 -13z"/>
<path d="M910 3752 c0 -23 57 -72 84 -72 29 0 76 19 76 31 0 4 -12 1 -27 -7
-50 -26 -92 -14 -117 34 -9 15 -15 21 -16 14z"/>
<path d="M4640 3753 c0 -9 40 -36 45 -31 2 2 -8 11 -21 21 -13 10 -24 14 -24
10z"/>
<path d="M1098 3733 c6 -2 18 -2 25 0 6 3 1 5 -13 5 -14 0 -19 -2 -12 -5z"/>
<path d="M4558 3715 c-3 -11 -9 -29 -13 -40 -3 -11 1 -7 10 8 9 16 15 33 12
40 -2 6 -6 3 -9 -8z"/>
<path d="M4659 3701 c13 -12 28 -21 34 -21 12 0 11 0 -28 24 l-30 17 24 -20z"/>
<path d="M897 3653 c18 -18 41 -33 50 -32 13 0 11 3 -7 10 -14 6 -36 20 -50
32 -14 12 -11 7 7 -10z"/>
<path d="M1075 3670 c-26 -28 -15 -31 12 -3 12 13 19 23 14 23 -4 0 -16 -9
-26 -20z"/>
<path d="M4780 3650 c-12 -7 -10 -12 12 -30 15 -11 29 -30 31 -43 l4 -22 2 23
c0 12 -8 31 -19 42 -23 23 -25 30 -7 30 15 0 62 -47 70 -70 5 -13 6 -12 6 1 1
18 -56 79 -73 79 -6 0 -18 -4 -26 -10z"/>
<path d="M1025 3630 c-16 -7 -17 -9 -3 -9 9 -1 20 4 23 9 7 11 7 11 -20 0z"/>
<path d="M848 3623 c7 -3 16 -2 19 1 4 3 -2 6 -13 5 -11 0 -14 -3 -6 -6z"/>
<path d="M4540 3617 c0 -21 52 -77 72 -77 7 1 0 8 -15 16 -16 9 -35 30 -42 47
-9 20 -14 25 -15 14z"/>
<path d="M786 3589 c-14 -17 -26 -36 -26 -42 0 -7 5 -3 11 8 6 11 23 30 38 42
14 13 21 23 14 23 -6 0 -23 -14 -37 -31z"/>
<path d="M922 3604 c10 -10 20 -15 24 -12 3 4 -5 12 -18 18 -22 12 -22 12 -6
-6z"/>
<path d="M3564 3570 c-6 -30 -7 -30 -78 -30 l-72 0 -17 -35 c-9 -20 -17 -39
-17 -44 0 -4 44 -8 98 -8 81 0 98 -2 100 -16 3 -14 -9 -17 -73 -19 -76 -3 -77
-3 -90 -35 l-14 -33 89 0 c83 0 90 -1 90 -20 0 -19 -7 -20 -99 -20 l-99 0 -16
-47 c-9 -26 -16 -48 -16 -50 0 -2 52 -3 115 -3 l115 0 0 -124 c0 -119 1 -124
20 -119 19 5 20 14 20 124 l0 119 90 0 90 0 20 40 c11 21 20 44 20 50 0 6 -41
10 -111 10 -100 0 -110 2 -107 18 3 14 16 18 76 20 68 3 73 4 87 32 8 16 15
31 15 35 0 3 -40 5 -90 5 -73 0 -90 3 -90 15 0 12 16 15 80 15 l80 0 20 40
c11 21 20 41 20 44 0 3 -42 7 -92 8 l-93 3 3 28 c3 25 1 27 -33 27 -31 0 -36
-3 -41 -30z"/>
<path d="M2118 3548 c-1 -18 -1 -42 1 -53 18 -162 20 -155 -32 -155 -45 0
-112 -46 -208 -143 -59 -60 -96 -104 -91 -109 6 -6 38 9 81 37 102 66 173 96
242 102 34 3 62 11 64 17 2 6 5 84 8 174 l4 162 -34 0 c-30 0 -33 -3 -35 -32z"/>
<path d="M1883 3548 c-15 -19 -43 -75 -43 -87 0 -6 19 -14 41 -17 30 -5 54
-19 87 -51 25 -23 50 -43 55 -43 13 0 3 69 -18 122 -24 62 -97 108 -122 76z"/>
<path d="M2349 3537 c-43 -29 -96 -131 -110 -215 -14 -81 -10 -92 41 -92 87 0
145 -51 226 -201 27 -49 52 -89 56 -89 21 0 15 30 -28 137 -74 190 -114 244
-195 263 -43 11 -48 14 -39 31 17 31 92 68 153 75 31 4 57 9 57 11 0 2 -11 26
-25 53 -24 47 -28 50 -64 50 -23 0 -51 -9 -72 -23z"/>
<path d="M4675 3549 c-4 -5 -3 -8 2 -7 4 1 21 -6 36 -16 15 -10 30 -16 33 -13
3 3 -4 8 -15 12 -12 3 -21 10 -21 15 0 12 -29 20 -35 9z"/>
<path d="M856 3543 c28 -5 51 -31 57 -63 4 -25 4 -24 6 3 1 33 -31 68 -61 66
-22 -2 -23 -2 -2 -6z"/>
<path d="M962 3530 c0 -14 2 -19 5 -12 2 6 2 18 0 25 -3 6 -5 1 -5 -13z"/>
<path d="M4800 3535 c-7 -8 -19 -15 -28 -15 -8 0 -13 -3 -9 -6 9 -9 45 5 51
21 7 19 2 19 -14 0z"/>
<path d="M4872 3512 c-5 -16 -21 -40 -34 -52 l-23 -22 23 12 c22 11 59 77 49
87 -3 2 -9 -9 -15 -25z"/>
<path d="M793 3515 c-3 -9 -3 -18 -1 -21 3 -3 8 4 11 16 6 23 -1 27 -10 5z"/>
<path d="M960 3495 c0 -3 18 -23 40 -44 22 -21 40 -34 40 -30 0 8 -12 21 -54
56 -14 13 -26 20 -26 18z"/>
<path d="M4675 3490 c3 -5 8 -10 11 -10 2 0 4 5 4 10 0 6 -5 10 -11 10 -5 0
-7 -4 -4 -10z"/>
<path d="M750 3484 c0 -13 18 -39 24 -34 2 3 -2 14 -10 24 -8 11 -14 16 -14
10z"/>
<path d="M792 3460 c0 -14 2 -19 5 -12 2 6 2 18 0 25 -3 6 -5 1 -5 -13z"/>
<path d="M4723 3456 c15 -14 38 -26 50 -26 18 0 16 -4 -16 -34 -20 -18 -37
-40 -37 -47 0 -8 8 -2 17 12 23 37 64 59 115 60 35 1 30 3 -27 10 -42 6 -82
17 -100 30 l-30 20 28 -25z"/>
<path d="M956 3423 c11 -11 25 -28 32 -39 7 -10 5 -4 -5 15 -10 19 -24 36 -32
39 -8 3 -6 -3 5 -15z"/>
<path d="M4929 3394 c18 -15 42 -41 52 -58 10 -17 19 -26 19 -19 0 17 -58 81
-84 94 -11 6 -6 -2 13 -17z"/>
<path d="M696 3381 c-37 -25 -56 -57 -54 -96 1 -26 1 -27 5 -5 9 54 26 79 66
99 23 12 35 21 27 21 -8 0 -28 -9 -44 -19z"/>
<path d="M1041 3384 c0 -11 3 -14 6 -6 3 7 2 16 -1 19 -3 4 -6 -2 -5 -13z"/>
<path d="M787 3380 c38 -15 61 -90 28 -90 -8 0 -15 -5 -15 -10 0 -7 6 -7 20 0
11 6 20 21 20 34 0 29 -36 76 -58 75 -13 0 -11 -3 5 -9z"/>
<path d="M4830 3356 c0 -2 13 -6 29 -8 17 -2 28 -1 25 4 -5 8 -54 12 -54 4z"/>
<path d="M4793 3338 c-17 -23 -25 -44 -9 -24 9 11 22 23 28 28 9 5 9 8 2 8 -6
0 -16 -6 -21 -12z"/>
<path d="M750 3330 c-8 -5 -10 -10 -5 -10 6 0 17 5 25 10 8 5 11 10 5 10 -5 0
-17 -5 -25 -10z"/>
<path d="M4900 3336 c0 -2 8 -10 18 -17 15 -13 16 -12 3 4 -13 16 -21 21 -21
13z"/>
<path d="M796 3317 c3 -10 9 -15 12 -12 3 3 0 11 -7 18 -10 9 -11 8 -5 -6z"/>
<path d="M980 3317 c0 -17 -42 -57 -60 -57 -7 0 -30 -18 -50 -40 -20 -22 -33
-40 -29 -40 5 0 21 16 36 35 15 19 35 35 43 35 20 0 70 47 70 65 0 8 -2 15 -5
15 -3 0 -5 -6 -5 -13z"/>
<path d="M1041 3310 c0 -13 -16 -39 -33 -58 -23 -24 -27 -31 -12 -24 30 16 56
59 51 85 -4 20 -4 20 -6 -3z"/>
<path d="M4713 3294 c1 -31 -6 -48 -26 -70 -15 -16 -27 -36 -27 -44 0 -8 9 -2
20 15 11 17 26 39 33 50 9 13 11 32 6 55 l-7 35 1 -41z"/>
<path d="M710 3299 c-6 -11 -10 -27 -8 -35 2 -8 8 1 14 20 12 40 10 46 -6 15z"/>
<path d="M5001 3284 c0 -11 3 -14 6 -6 3 7 2 16 -1 19 -3 4 -6 -2 -5 -13z"/>
<path d="M642 3230 c0 -14 2 -19 5 -12 2 6 2 18 0 25 -3 6 -5 1 -5 -13z"/>
<path d="M4840 3244 c0 -3 7 -12 15 -20 16 -17 18 -14 9 10 -6 15 -24 23 -24
10z"/>
<path d="M4910 3225 c-8 -9 -8 -15 -2 -15 12 0 26 19 19 26 -2 2 -10 -2 -17
-11z"/>
<path d="M4748 3213 c-29 -34 -40 -65 -34 -97 6 -34 51 -85 63 -73 3 4 1 7 -5
7 -16 0 -52 60 -52 86 0 12 11 38 25 58 26 39 28 47 3 19z"/>
<path d="M937 3213 c-25 -4 -55 -38 -44 -50 3 -2 8 5 12 16 4 14 15 21 30 21
13 0 27 5 30 10 3 6 5 9 3 9 -2 -1 -15 -4 -31 -6z"/>
<path d="M4986 3205 c-3 -9 -20 -22 -38 -30 -18 -8 -25 -14 -16 -15 20 0 76
45 67 55 -4 3 -9 -1 -13 -10z"/>
<path d="M743 3188 c11 -10 27 -18 36 -17 10 0 7 4 -8 10 -14 5 -30 13 -36 17
-6 4 -2 -1 8 -10z"/>
<path d="M650 3193 c0 -7 12 -25 28 -41 15 -15 20 -19 11 -7 -9 11 -21 29 -27
40 -6 11 -12 14 -12 8z"/>
<path d="M4859 3181 c13 -12 28 -21 34 -21 12 0 11 0 -28 24 l-30 17 24 -20z"/>
<path d="M4655 3121 c2 -24 9 -49 16 -55 9 -8 10 -6 4 9 -4 11 -11 36 -16 55
-8 33 -8 33 -4 -9z"/>
<path d="M869 3133 c-13 -16 -12 -17 4 -4 16 13 21 21 13 21 -2 0 -10 -8 -17
-17z"/>
<path d="M711 3103 c-12 -13 -11 -14 5 -11 11 3 35 -5 54 -16 30 -17 33 -18
21 -2 -8 9 -26 23 -40 31 -22 11 -28 11 -40 -2z"/>
<path d="M4944 3109 c-4 -7 0 -9 13 -5 21 7 41 -10 63 -53 18 -35 4 -90 -33
-124 -22 -21 -25 -26 -10 -18 29 15 52 48 59 87 12 63 -64 157 -92 113z"/>
<path d="M652 3069 c-18 -18 -35 -42 -38 -55 -8 -33 3 -89 21 -104 13 -11 13
-9 0 16 -25 49 -19 89 21 134 43 48 41 53 -4 9z"/>
<path d="M4969 3073 c16 -32 14 -41 -14 -68 -13 -14 -20 -25 -15 -25 11 0 50
49 50 64 0 7 -7 21 -16 32 -15 18 -15 18 -5 -3z"/>
<path d="M807 3032 c3 -12 9 -25 14 -28 14 -8 11 10 -6 32 -13 18 -14 18 -8
-4z"/>
<path d="M4695 3031 c22 -25 66 -51 87 -51 7 1 -3 8 -22 16 -19 8 -46 25 -60
37 l-25 22 20 -24z"/>
<path d="M4846 3027 c6 -15 53 -52 58 -45 2 2 -12 16 -31 32 -18 15 -31 21
-27 13z"/>
<path d="M684 3004 c-18 -14 -18 -15 4 -4 13 6 30 9 38 6 9 -3 12 -1 9 4 -9
14 -28 12 -51 -6z"/>
<path d="M774 2968 c12 -23 28 -44 34 -44 7 -1 16 -2 22 -3 25 -3 50 -47 50
-88 0 -42 -15 -67 -53 -89 -8 -5 -17 -20 -21 -34 -6 -23 -6 -23 5 -5 7 11 27
34 45 51 28 26 34 39 34 74 0 55 -13 76 -60 100 -21 11 -41 28 -45 39 -3 11
-12 25 -20 31 -8 7 -4 -7 9 -32z"/>
<path d="M820 2985 c0 -3 15 -11 33 -19 45 -19 79 -59 87 -103 7 -33 8 -34 9
-9 1 41 -34 93 -80 116 -39 21 -49 23 -49 15z"/>
<path d="M4820 2981 c0 -12 58 -77 64 -71 2 3 -11 22 -30 42 -19 21 -34 34
-34 29z"/>
<path d="M665 2900 c-3 -5 -1 -10 4 -10 6 0 11 5 11 10 0 6 -2 10 -4 10 -3 0
-8 -4 -11 -10z"/>
<path d="M4898 2901 c-2 -3 -19 -14 -38 -24 -20 -10 -42 -28 -49 -40 -11 -17
-7 -16 17 7 17 16 52 34 78 41 42 11 45 13 21 17 -14 3 -28 2 -29 -1z"/>
<path d="M4960 2886 c0 -3 14 -13 30 -21 17 -9 40 -30 50 -48 11 -18 20 -27
20 -21 0 19 -40 63 -71 79 -16 9 -29 13 -29 11z"/>
<path d="M665 2840 c27 -12 43 -12 25 0 -8 5 -22 9 -30 9 -10 0 -8 -3 5 -9z"/>
<path d="M1070 2833 c0 -48 53 -221 93 -307 112 -236 279 -404 527 -531 59
-30 192 -81 350 -135 441 -149 609 -251 739 -447 17 -25 31 -41 31 -35 0 20
-39 261 -55 339 -57 279 -135 449 -269 585 -69 70 -147 129 -241 181 -136 76
-240 104 -475 127 -217 22 -367 58 -484 116 -59 30 -163 89 -193 111 -22 14
-23 14 -23 -4z m465 -341 c414 -130 488 -155 570 -195 196 -96 329 -229 517
-517 116 -178 130 -215 27 -70 -180 255 -417 475 -601 559 -35 16 -155 59
-268 95 -211 69 -467 183 -505 226 -15 16 -1 12 55 -18 41 -22 134 -58 205
-80z"/>
<path d="M4495 2802 c-86 -56 -238 -124 -325 -146 -73 -18 -221 -40 -378 -55
-205 -21 -358 -80 -517 -198 -214 -159 -314 -337 -385 -683 -25 -119 -61 -342
-56 -347 1 -2 19 20 38 49 84 125 240 247 408 319 47 20 159 62 250 93 351
121 483 181 615 281 168 128 281 275 356 459 37 93 74 233 67 259 -2 10 -22 1
-73 -31z m-125 -207 c-42 -50 -269 -153 -535 -241 -229 -76 -319 -118 -425
-199 -140 -107 -316 -296 -425 -457 -33 -48 -61 -85 -63 -83 -4 4 -3 6 113
185 167 257 286 379 467 478 97 53 296 123 583 204 89 25 210 75 255 105 41
27 47 29 30 8z"/>
<path d="M595 2816 c-23 -20 -28 -33 -31 -77 l-3 -54 8 47 c4 32 16 58 36 78
34 36 29 39 -10 6z"/>
<path d="M721 2815 c10 -11 19 -29 22 -40 4 -19 5 -19 6 1 0 11 -9 29 -21 40
-23 19 -23 19 -7 -1z"/>
<path d="M4903 2813 c9 -2 25 -2 35 0 9 3 1 5 -18 5 -19 0 -27 -2 -17 -5z"/>
<path d="M4850 2785 c-13 -14 -21 -27 -18 -30 2 -3 14 9 27 25 26 37 23 39 -9
5z"/>
<path d="M4980 2783 c13 -18 25 -33 27 -33 8 0 -17 38 -33 51 -11 9 -9 2 6
-18z"/>
<path d="M654 2774 c-18 -14 -18 -15 4 -4 12 6 22 13 22 15 0 8 -5 6 -26 -11z"/>
<path d="M690 2786 c0 -2 7 -7 16 -10 8 -3 12 -2 9 4 -6 10 -25 14 -25 6z"/>
<path d="M5061 2775 c1 -19 18 -51 18 -35 0 8 -4 22 -9 30 -5 8 -9 11 -9 5z"/>
<path d="M923 2758 c-23 -30 -24 -41 -2 -21 12 12 20 25 17 28 -3 3 -10 0 -15
-7z"/>
<path d="M4782 2756 c-37 -33 -82 -80 -82 -86 0 -3 23 16 51 43 28 27 49 50
47 52 -2 1 -9 -2 -16 -9z"/>
<path d="M720 2750 c0 -5 5 -10 11 -10 5 0 7 5 4 10 -3 6 -8 10 -11 10 -2 0
-4 -4 -4 -10z"/>
<path d="M4793 2696 c-18 -17 -33 -35 -33 -39 0 -4 16 8 37 28 20 19 34 36 32
38 -2 2 -19 -11 -36 -27z"/>
<path d="M863 2708 c-13 -6 -23 -15 -23 -20 0 -5 11 -1 25 8 37 24 35 30 -2
12z"/>
<path d="M4987 2694 c-10 -13 -13 -24 -8 -24 10 0 36 39 29 45 -2 2 -11 -8
-21 -21z"/>
<path d="M630 2708 c0 -17 24 -57 38 -63 14 -5 14 -4 0 12 -8 10 -20 27 -26
38 -6 11 -12 17 -12 13z"/>
<path d="M4896 2694 c-9 -23 -7 -31 4 -14 8 13 11 12 23 -4 8 -10 20 -16 28
-13 11 4 10 6 -3 6 -9 1 -20 10 -23 21 -8 24 -21 26 -29 4z"/>
<path d="M5071 2703 c-1 -6 -4 -20 -7 -30 -5 -17 -5 -17 6 0 6 10 9 23 6 30
-3 9 -5 9 -5 0z"/>
<path d="M576 2660 c8 -31 39 -71 67 -87 35 -20 45 -15 12 5 -35 22 -55 44
-72 81 l-13 26 6 -25z"/>
<path d="M774 2658 l-19 -23 23 19 c21 18 27 26 19 26 -2 0 -12 -10 -23 -22z"/>
<path d="M833 2655 c-3 -9 -3 -18 -1 -21 3 -3 8 4 11 16 6 23 -1 27 -10 5z"/>
<path d="M4900 2652 c0 -21 44 -42 85 -41 l40 2 -49 6 c-30 5 -54 14 -62 26
-8 10 -14 14 -14 7z"/>
<path d="M4692 2620 c0 -19 2 -27 5 -17 2 9 2 25 0 35 -3 9 -5 1 -5 -18z"/>
<path d="M5036 2634 c-5 -14 -4 -15 9 -4 17 14 19 20 6 20 -5 0 -12 -7 -15
-16z"/>
<path d="M703 2633 c9 -2 25 -2 35 0 9 3 1 5 -18 5 -19 0 -27 -2 -17 -5z"/>
<path d="M4752 2620 c0 -14 2 -19 5 -12 2 6 2 18 0 25 -3 6 -5 1 -5 -13z"/>
<path d="M809 2603 c-8 -9 -27 -22 -44 -29 -18 -8 -23 -13 -13 -14 16 0 92 59
77 60 -4 0 -13 -7 -20 -17z"/>
<path d="M4760 2573 c1 -12 38 -58 43 -53 3 3 -6 18 -19 33 -13 15 -24 24 -24
20z"/>
<path d="M4970 2552 c0 -5 7 -17 16 -28 14 -18 15 -18 4 4 -13 26 -4 29 22 5
22 -20 24 -11 2 11 -16 17 -44 22 -44 8z"/>
<path d="M4710 2542 c0 -12 46 -62 57 -62 4 0 -6 15 -23 32 -16 18 -30 35 -31
37 -2 2 -3 -1 -3 -7z"/>
<path d="M662 2524 c-28 -19 -52 -65 -52 -99 0 -55 52 -116 84 -98 10 6 9 12
-7 28 -20 20 -20 20 -8 -2 20 -39 -13 -26 -42 17 -33 48 -12 126 41 154 15 9
22 15 17 16 -6 0 -21 -7 -33 -16z"/>
<path d="M741 2538 c2 -2 22 -19 44 -38 21 -19 33 -26 25 -15 -19 26 -53 54
-64 55 -5 0 -7 -1 -5 -2z"/>
<path d="M4828 2513 c6 -2 18 -2 25 0 6 3 1 5 -13 5 -14 0 -19 -2 -12 -5z"/>
<path d="M5032 2490 c0 -14 2 -19 5 -12 2 6 2 18 0 25 -3 6 -5 1 -5 -13z"/>
<path d="M4860 2491 c0 -6 4 -13 10 -16 6 -3 7 1 4 9 -7 18 -14 21 -14 7z"/>
<path d="M4800 2466 c14 -8 27 -12 29 -10 6 6 -1 11 -29 18 l-25 7 25 -15z"/>
<path d="M737 2453 c13 -2 32 -16 43 -31 16 -20 31 -26 61 -27 28 -1 35 1 23
8 -8 5 -24 7 -34 4 -12 -3 -29 6 -46 24 -15 16 -37 28 -48 28 -19 -2 -19 -2 1
-6z"/>
<path d="M833 2453 c9 -2 25 -2 35 0 9 3 1 5 -18 5 -19 0 -27 -2 -17 -5z"/>
<path d="M916 2428 c16 -13 37 -32 47 -43 18 -20 18 -20 8 2 -11 21 -61 63
-76 63 -4 0 5 -10 21 -22z"/>
<path d="M4830 2437 c0 -16 34 -66 49 -72 11 -4 9 1 -5 17 -12 13 -26 32 -32
43 -6 11 -12 16 -12 12z"/>
<path d="M4997 2390 c-15 -16 -37 -31 -50 -33 l-22 -4 22 -2 c23 -1 93 52 83
63 -3 3 -18 -8 -33 -24z"/>
<path d="M899 2375 c17 -33 31 -51 31 -40 0 6 -10 21 -21 35 -13 17 -17 18
-10 5z"/>
<path d="M982 2350 c0 -8 4 -26 8 -40 6 -20 8 -21 8 -5 0 11 -3 29 -8 40 -5
12 -8 14 -8 5z"/>
<path d="M4858 2343 c7 -3 16 -2 19 1 4 3 -2 6 -13 5 -11 0 -14 -3 -6 -6z"/>
<path d="M4781 2314 c-17 -14 -31 -31 -31 -37 0 -7 10 0 23 15 12 15 33 32 47
37 16 6 19 10 8 10 -9 1 -30 -11 -47 -25z"/>
<path d="M4925 2324 c38 -22 62 -51 74 -89 7 -23 9 -25 10 -9 1 22 -53 104
-68 104 -5 0 -18 3 -28 6 -10 3 -5 -2 12 -12z"/>
<path d="M684 2264 c-19 -15 -19 -15 1 -6 11 5 27 12 35 15 13 5 13 6 -1 6 -8
1 -24 -6 -35 -15z"/>
<path d="M751 2276 c2 -2 15 -9 29 -15 24 -11 24 -11 6 3 -16 13 -49 24 -35
12z"/>
<path d="M903 2243 c-13 -19 -23 -47 -23 -63 0 -16 -11 -42 -26 -59 -34 -41
-75 -42 -115 -2 -32 32 -37 62 -14 81 8 7 15 18 15 24 -1 20 -40 -35 -40 -56
0 -31 63 -88 97 -88 48 0 93 51 93 105 0 14 10 39 22 55 12 16 20 32 17 34 -2
2 -14 -12 -26 -31z"/>
<path d="M4810 2258 c-19 -13 -35 -30 -37 -38 -3 -10 -1 -9 7 3 6 9 28 26 48
37 20 10 32 19 26 20 -6 0 -26 -10 -44 -22z"/>
<path d="M4886 2260 c46 -18 66 -76 43 -123 -10 -22 -10 -22 6 -2 35 42 -3
136 -54 134 -11 0 -10 -3 5 -9z"/>
<path d="M4730 2245 c-11 -13 -10 -14 4 -9 9 3 16 10 16 15 0 13 -6 11 -20 -6z"/>
<path d="M643 2225 c-3 -9 -3 -18 -1 -21 3 -3 8 4 11 16 6 23 -1 27 -10 5z"/>
<path d="M801 2226 c-1 -16 -3 -17 -18 -5 -15 13 -15 12 -2 -8 11 -19 15 -20
22 -7 5 8 6 20 3 27 -2 7 -5 4 -5 -7z"/>
<path d="M942 2209 c-13 -16 -21 -35 -19 -42 3 -7 6 -5 6 6 1 9 5 17 11 17 9
0 35 39 28 45 -2 1 -13 -11 -26 -26z"/>
<path d="M4668 2218 c-20 -12 -40 -28 -43 -36 -3 -8 8 -4 24 10 15 12 37 28
47 35 33 20 11 14 -28 -9z"/>
<path d="M631 2174 c0 -11 3 -14 6 -6 3 7 2 16 -1 19 -3 4 -6 -2 -5 -13z"/>
<path d="M4686 2159 c-14 -17 -26 -38 -26 -47 0 -9 8 -1 18 18 9 19 28 40 42
47 17 9 20 13 8 13 -9 0 -28 -14 -42 -31z"/>
<path d="M4820 2155 c-24 -29 19 -106 59 -104 11 0 9 3 -5 9 -26 10 -54 48
-54 72 0 24 8 23 31 -4 l20 -23 -15 26 c-9 14 -13 29 -9 32 3 4 2 7 -4 7 -6 0
-16 -7 -23 -15z"/>
<path d="M4604 2146 c-3 -8 -4 -25 -2 -38 3 -17 5 -13 9 15 5 38 2 47 -7 23z"/>
<path d="M640 2136 c0 -8 4 -17 9 -20 5 -4 7 3 4 14 -6 23 -13 26 -13 6z"/>
<path d="M4992 2115 c-17 -37 -14 -45 4 -12 9 16 14 31 11 33 -2 2 -9 -7 -15
-21z"/>
<path d="M920 2102 c0 -20 -35 -55 -92 -92 -34 -23 -65 -66 -54 -77 2 -2 7 5
11 16 8 25 74 73 88 64 6 -3 7 -2 4 4 -3 5 7 22 24 37 25 23 40 66 24 66 -3 0
-5 -8 -5 -18z"/>
<path d="M4601 2064 c0 -11 3 -14 6 -6 3 7 2 16 -1 19 -3 4 -6 -2 -5 -13z"/>
<path d="M4660 2069 c0 -20 37 -69 53 -69 7 0 4 5 -6 11 -11 6 -25 25 -33 43
-7 17 -13 24 -14 15z"/>
<path d="M680 2066 c0 -2 8 -10 18 -17 15 -13 16 -12 3 4 -13 16 -21 21 -21
13z"/>
<path d="M734 2026 c11 -9 34 -15 50 -15 31 1 31 1 -4 8 -20 4 -42 11 -50 15
-8 4 -6 0 4 -8z"/>
<path d="M4610 2037 c0 -18 21 -47 50 -67 16 -12 30 -17 30 -11 0 5 -9 13 -21
16 -11 4 -29 21 -40 38 -10 18 -19 28 -19 24z"/>
<path d="M916 1991 c18 -11 35 -24 38 -30 4 -6 12 -11 18 -11 6 0 -6 14 -27
30 -21 17 -43 30 -49 30 -6 0 3 -9 20 -19z"/>
<path d="M4731 1978 c-2 -40 8 -57 43 -74 l31 -16 -32 28 c-19 17 -34 41 -36
59 -4 28 -4 28 -6 3z"/>
<path d="M4853 1943 c-10 -34 -10 -36 3 -19 12 17 20 56 11 56 -1 0 -7 -17
-14 -37z"/>
<path d="M4892 1960 c0 -14 2 -19 5 -12 2 6 2 18 0 25 -3 6 -5 1 -5 -13z"/>
<path d="M1056 1949 c18 -5 48 -27 68 -49 30 -34 36 -47 36 -86 0 -30 -8 -59
-21 -80 -11 -19 -18 -34 -16 -34 17 0 47 73 47 111 0 72 -68 151 -127 148 -10
0 -4 -5 13 -10z"/>
<path d="M845 1914 c-14 -15 -25 -36 -24 -48 1 -20 1 -20 7 1 10 33 39 63 61
63 10 0 30 -9 45 -21 14 -11 32 -18 39 -16 7 3 5 6 -5 6 -10 1 -18 5 -18 9 0
10 -45 32 -66 32 -8 0 -26 -12 -39 -26z"/>
<path d="M1003 1903 c9 -2 23 -2 30 0 6 3 -1 5 -18 5 -16 0 -22 -2 -12 -5z"/>
<path d="M761 1891 c-1 -22 48 -89 70 -96 10 -4 26 -2 35 3 13 7 11 11 -13 27
l-28 18 19 -21 c17 -20 17 -22 2 -22 -19 0 -55 39 -72 78 -7 15 -13 20 -13 13z"/>
<path d="M1070 1875 c13 -14 26 -25 28 -25 3 0 -5 11 -18 25 -13 14 -26 25
-28 25 -3 0 5 -11 18 -25z"/>
<path d="M4690 1895 c0 -5 5 -17 10 -25 5 -8 10 -10 10 -5 0 6 -5 17 -10 25
-5 8 -10 11 -10 5z"/>
<path d="M4875 1869 c-4 -6 -5 -12 -2 -15 2 -3 7 2 10 11 7 17 1 20 -8 4z"/>
<path d="M4714 1843 c5 -10 -5 -13 -42 -13 -41 0 -53 -5 -77 -30 -23 -24 -38
-30 -74 -32 l-46 -1 44 -4 c38 -4 48 0 75 26 27 26 39 30 94 32 34 1 61 3 60
3 -2 1 -12 8 -22 16 -13 10 -17 10 -12 3z"/>
<path d="M4768 1782 c15 -15 29 -26 31 -25 6 4 -41 53 -50 53 -4 0 4 -13 19
-28z"/>
<path d="M1096 1763 c-6 -14 -5 -15 5 -6 7 7 10 15 7 18 -3 3 -9 -2 -12 -12z"/>
<path d="M4618 1754 c-39 -20 -35 -28 3 -8 19 9 42 13 58 10 19 -5 22 -4 11 4
-20 13 -40 12 -72 -6z"/>
<path d="M961 1757 c2 -1 15 -11 29 -22 l25 -20 -19 23 c-11 12 -24 22 -29 22
-6 0 -8 -1 -6 -3z"/>
<path d="M4426 1735 c-14 -13 -26 -27 -26 -31 0 -4 15 5 32 22 18 16 35 30 37
32 2 1 0 2 -6 2 -5 0 -22 -11 -37 -25z"/>
<path d="M866 1731 c-9 -10 -19 -36 -21 -57 l-5 -39 10 39 c6 22 18 48 27 58
9 10 14 18 11 18 -3 0 -13 -8 -22 -19z"/>
<path d="M4725 1720 c29 -57 14 -103 -40 -119 -25 -8 -26 -9 -7 -10 30 -1 72
42 72 74 0 25 -25 85 -36 85 -2 0 2 -13 11 -30z"/>
<path d="M1081 1724 c0 -11 3 -14 6 -6 3 7 2 16 -1 19 -3 4 -6 -2 -5 -13z"/>
<path d="M4560 1720 c-9 -6 -10 -10 -3 -10 6 0 15 5 18 10 8 12 4 12 -15 0z"/>
<path d="M979 1708 c15 -21 31 -23 31 -6 0 6 -3 8 -7 5 -3 -4 -13 -1 -22 6
-14 11 -14 10 -2 -5z"/>
<path d="M4495 1710 c-12 -4 -27 -16 -35 -26 -14 -18 -14 -18 6 -1 11 9 26 17
32 17 6 0 14 5 17 10 7 11 7 12 -20 0z"/>
<path d="M1137 1651 c10 -72 -47 -131 -127 -131 -22 0 -53 6 -68 14 -30 16
-77 63 -85 86 -5 13 -6 12 -6 -1 -1 -19 41 -64 84 -90 36 -23 105 -25 145 -4
15 8 38 30 49 48 21 35 28 101 12 111 -5 4 -7 -11 -4 -33z"/>
<path d="M912 1660 c0 -14 2 -19 5 -12 2 6 2 18 0 25 -3 6 -5 1 -5 -13z"/>
<path d="M4383 1635 c0 -22 2 -30 4 -17 2 12 2 30 0 40 -3 9 -5 -1 -4 -23z"/>
<path d="M4630 1655 c0 -8 2 -15 4 -15 2 0 6 7 10 15 3 8 1 15 -4 15 -6 0 -10
-7 -10 -15z"/>
<path d="M1072 1628 c-10 -30 -10 -31 3 -14 13 17 21 46 12 46 -1 0 -8 -15
-15 -32z"/>
<path d="M4603 1645 c-3 -9 -3 -18 -1 -21 3 -3 8 4 11 16 6 23 -1 27 -10 5z"/>
<path d="M4802 1640 c0 -14 2 -19 5 -12 2 6 2 18 0 25 -3 6 -5 1 -5 -13z"/>
<path d="M4630 1621 c0 -6 4 -13 10 -16 6 -3 7 1 4 9 -7 18 -14 21 -14 7z"/>
<path d="M949 1601 c13 -12 28 -21 34 -21 12 0 11 0 -28 24 l-30 17 24 -20z"/>
<path d="M4790 1603 c0 -6 -12 -23 -27 -38 -16 -15 -22 -26 -14 -23 20 6 56
56 48 65 -4 3 -7 2 -7 -4z"/>
<path d="M1020 1590 c-23 -7 -23 -8 -3 -9 12 -1 25 4 28 9 3 6 5 10 3 9 -2 -1
-14 -5 -28 -9z"/>
<path d="M4436 1587 c3 -10 9 -15 12 -12 3 3 0 11 -7 18 -10 9 -11 8 -5 -6z"/>
<path d="M4601 1589 c-1 -16 39 -59 54 -59 5 0 -1 7 -13 16 -13 9 -27 26 -32
38 -6 14 -9 16 -9 5z"/>
<path d="M4380 1576 c0 -8 4 -17 9 -20 5 -4 7 3 4 14 -6 23 -13 26 -13 6z"/>
<path d="M4455 1550 c3 -5 8 -10 11 -10 2 0 4 5 4 10 0 6 -5 10 -11 10 -5 0
-7 -4 -4 -10z"/>
<path d="M4408 1529 c7 -10 10 -35 7 -65 l-4 -49 10 49 c9 42 8 51 -7 65 -16
15 -17 15 -6 0z"/>
<path d="M4695 1530 l-30 -8 27 -1 c15 0 30 4 33 9 3 6 5 9 3 9 -2 -1 -16 -5
-33 -9z"/>
<path d="M1118 1523 c7 -3 16 -2 19 1 4 3 -2 6 -13 5 -11 0 -14 -3 -6 -6z"/>
<path d="M1150 1525 c0 -2 16 -11 36 -20 31 -13 39 -13 62 0 15 8 23 14 19 15
-5 0 -17 -4 -27 -10 -13 -7 -29 -5 -54 5 -20 9 -36 13 -36 10z"/>
<path d="M1293 1523 c9 -2 25 -2 35 0 9 3 1 5 -18 5 -19 0 -27 -2 -17 -5z"/>
<path d="M4477 1523 c-13 -12 -7 -72 9 -87 22 -23 30 -20 9 4 -12 13 -16 30
-13 55 4 38 4 38 -5 28z"/>
<path d="M1055 1490 c-10 -11 -16 -22 -14 -24 2 -2 12 7 22 20 22 29 17 32 -8
4z"/>
<path d="M1413 1476 c20 -20 37 -42 37 -48 0 -6 3 -9 6 -5 9 9 -34 65 -59 78
-13 7 -7 -3 16 -25z"/>
<path d="M4608 1489 c16 -17 15 -54 -2 -87 -13 -25 -37 -43 -76 -55 -11 -4
-11 -6 3 -6 26 -1 66 28 83 60 20 39 18 85 -3 94 -15 5 -16 4 -5 -6z"/>
<path d="M1248 1454 c-12 -12 -20 -14 -36 -5 -31 16 -67 13 -85 -7 -10 -10
-17 -23 -17 -28 0 -4 7 2 16 14 16 24 53 29 85 11 16 -8 25 -7 37 4 9 8 24 17
32 20 13 5 13 6 0 6 -9 1 -23 -6 -32 -15z"/>
<path d="M4585 1448 c-6 -14 -22 -26 -40 -29 -28 -6 -29 -7 -4 -8 27 -1 64 30
57 49 -2 6 -8 0 -13 -12z"/>
<path d="M1370 1433 c13 -18 26 -30 29 -28 3 3 -8 18 -23 33 l-29 27 23 -32z"/>
<path d="M1453 1375 c0 -22 2 -30 4 -17 2 12 2 30 0 40 -3 9 -5 -1 -4 -23z"/>
<path d="M1040 1389 c0 -24 35 -65 70 -79 25 -10 36 -10 55 0 14 7 23 15 21
17 -2 3 -13 -1 -25 -9 -18 -11 -26 -10 -57 7 -20 11 -43 33 -50 50 -7 16 -13
23 -14 14z"/>
<path d="M4361 1387 c20 -7 45 -18 55 -26 16 -13 16 -12 -1 6 -11 12 -36 24
-55 27 l-35 5 36 -12z"/>
<path d="M4260 1369 c-19 -10 -29 -19 -23 -19 7 0 27 9 45 20 42 26 24 25 -22
-1z"/>
<path d="M1401 1368 c0 -9 -4 -25 -7 -35 -5 -17 -5 -17 6 0 6 10 9 25 7 35 -4
15 -5 15 -6 0z"/>
<path d="M4430 1376 c0 -2 8 -10 18 -17 15 -13 16 -12 3 4 -13 16 -21 21 -21
13z"/>
<path d="M1110 1361 c0 -6 4 -13 10 -16 6 -3 7 1 4 9 -7 18 -14 21 -14 7z"/>
<path d="M4138 1363 c7 -3 16 -2 19 1 4 3 -2 6 -13 5 -11 0 -14 -3 -6 -6z"/>
<path d="M4178 1363 c6 -2 18 -2 25 0 6 3 1 5 -13 5 -14 0 -19 -2 -12 -5z"/>
<path d="M4077 1333 c-26 -28 -57 -91 -56 -115 0 -7 9 10 20 39 11 29 34 64
50 78 17 14 27 25 22 25 -5 0 -21 -12 -36 -27z"/>
<path d="M4452 1318 c7 -15 15 -23 17 -17 2 6 -4 18 -13 27 -15 15 -15 15 -4
-10z"/>
<path d="M1440 1327 c0 -3 11 -23 25 -43 14 -20 25 -33 25 -27 0 5 -11 24 -25
43 -14 19 -25 31 -25 27z"/>
<path d="M4288 1323 c7 -3 16 -2 19 1 4 3 -2 6 -13 5 -11 0 -14 -3 -6 -6z"/>
<path d="M4370 1305 c13 -14 26 -25 28 -25 3 0 -5 11 -18 25 -13 14 -26 25
-28 25 -3 0 5 -11 18 -25z"/>
<path d="M4136 1305 c-11 -8 -15 -15 -10 -15 6 0 14 4 20 9 5 5 20 11 34 14
l25 4 -25 1 c-14 1 -34 -5 -44 -13z"/>
<path d="M4245 1310 c-3 -6 1 -7 9 -4 18 7 21 14 7 14 -6 0 -13 -4 -16 -10z"/>
<path d="M1216 1281 c-16 -16 -26 -35 -23 -43 4 -9 6 -9 6 3 1 17 37 53 61 62
13 5 13 6 -1 6 -8 1 -28 -12 -43 -28z"/>
<path d="M1295 1300 c27 -12 43 -12 25 0 -8 5 -22 9 -30 9 -10 0 -8 -3 5 -9z"/>
<path d="M1410 1292 c6 -13 10 -39 8 -60 -2 -29 -10 -41 -37 -59 -19 -13 -27
-23 -19 -23 8 0 27 12 42 26 30 31 35 88 10 120 -14 18 -15 18 -4 -4z"/>
<path d="M1265 1257 c-20 -31 -4 -80 31 -96 36 -16 44 -13 11 5 -30 16 -50 55
-41 78 3 7 15 18 27 24 18 8 18 11 5 11 -10 1 -24 -10 -33 -22z"/>
<path d="M4472 1245 c0 -16 2 -22 5 -12 2 9 2 23 0 30 -3 6 -5 -1 -5 -18z"/>
<path d="M4401 1244 c0 -11 3 -14 6 -6 3 7 2 16 -1 19 -3 4 -6 -2 -5 -13z"/>
<path d="M4080 1214 c0 -16 5 -36 10 -44 6 -10 7 -2 3 25 -7 49 -13 58 -13 19z"/>
<path d="M4250 1221 c-5 -11 -10 -26 -9 -33 0 -7 5 -1 11 15 5 15 17 27 25 27
13 0 14 -2 2 -17 -13 -16 -12 -17 4 -4 23 18 22 31 -3 31 -10 0 -24 -9 -30
-19z"/>
<path d="M4455 1190 c-4 -12 -21 -37 -38 -57 -23 -26 -26 -32 -10 -23 23 15
69 88 60 96 -3 3 -8 -4 -12 -16z"/>
<path d="M4286 1177 c3 -10 9 -15 12 -12 3 3 0 11 -7 18 -10 9 -11 8 -5 -6z"/>
<path d="M1469 1153 c-8 -14 -27 -35 -44 -45 -16 -10 -25 -18 -20 -18 6 0 22
8 35 17 14 10 25 16 25 13 0 -3 11 3 25 13 13 9 20 17 14 17 -5 0 -15 -5 -22
-12 -7 -7 -12 -8 -12 -2 0 6 5 15 12 22 6 6 9 14 7 17 -3 3 -12 -7 -20 -22z"/>
<path d="M1649 1159 l-24 -21 26 15 c15 9 46 17 70 20 l44 4 -46 1 c-35 2 -53
-3 -70 -19z"/>
<path d="M4030 1173 c0 -7 5 -15 11 -18 6 -4 8 -14 4 -24 -5 -12 -3 -13 6 -4
9 9 8 17 -5 34 -9 13 -16 18 -16 12z"/>
<path d="M1200 1163 c0 -14 76 -73 94 -73 6 0 -5 9 -24 21 -19 11 -43 31 -52
42 -10 12 -18 16 -18 10z"/>
<path d="M1533 1153 c9 -2 23 -2 30 0 6 3 -1 5 -18 5 -16 0 -22 -2 -12 -5z"/>
<path d="M1800 1156 c0 -3 9 -10 20 -16 11 -6 20 -8 20 -6 0 3 -9 10 -20 16
-11 6 -20 8 -20 6z"/>
<path d="M4092 1113 c-15 -50 -9 -52 11 -3 8 22 12 40 8 40 -4 0 -13 -17 -19
-37z"/>
<path d="M4261 1123 c14 -24 59 -49 59 -33 0 6 -5 10 -12 10 -6 0 -23 10 -36
23 -25 22 -25 22 -11 0z"/>
<path d="M1656 1101 c-10 -11 -26 -17 -39 -15 -21 4 -21 4 -2 -5 15 -6 25 -4
40 9 11 10 27 20 35 23 13 5 13 6 -1 6 -9 1 -24 -8 -33 -18z"/>
<path d="M1774 1097 c23 -18 31 -36 37 -73 l6 -49 2 40 c1 44 -18 79 -52 96
-15 7 -13 3 7 -14z"/>
<path d="M4021 1079 c-6 -18 -11 -37 -10 -43 0 -6 7 7 15 28 8 22 12 41 10 43
-2 2 -9 -10 -15 -28z"/>
<path d="M1446 1085 c-3 -9 -6 -26 -5 -38 1 -14 4 -9 9 13 9 37 7 52 -4 25z"/>
<path d="M1560 1089 c-25 -10 -40 -26 -40 -44 0 -5 7 1 16 13 8 12 21 22 29
22 8 0 17 5 20 10 7 12 7 12 -25 -1z"/>
<path d="M4350 1090 c-8 -5 -10 -10 -5 -10 6 0 17 5 25 10 8 5 11 10 5 10 -5
0 -17 -5 -25 -10z"/>
<path d="M1328 1083 c12 -2 32 -2 45 0 12 2 2 4 -23 4 -25 0 -35 -2 -22 -4z"/>
<path d="M1861 1074 c0 -11 3 -14 6 -6 3 7 2 16 -1 19 -3 4 -6 -2 -5 -13z"/>
<path d="M4210 1084 c0 -3 7 -12 15 -20 16 -17 18 -14 9 10 -6 15 -24 23 -24
10z"/>
<path d="M3738 1073 c7 -3 16 -2 19 1 4 3 -2 6 -13 5 -11 0 -14 -3 -6 -6z"/>
<path d="M3686 1061 c-4 -5 3 -7 14 -4 23 6 26 13 6 13 -8 0 -17 -4 -20 -9z"/>
<path d="M3809 1045 c23 -14 46 -25 50 -25 10 1 -73 50 -84 50 -5 0 10 -11 34
-25z"/>
<path d="M4090 1053 c0 -11 54 -43 72 -43 16 0 48 31 48 46 0 4 -7 -2 -16 -14
-19 -28 -44 -28 -78 -1 -14 11 -26 17 -26 12z"/>
<path d="M3654 1042 c-26 -17 -64 -86 -63 -116 1 -19 3 -23 6 -11 2 11 6 30 9
42 2 13 18 38 35 58 31 35 34 41 13 27z"/>
<path d="M3903 1043 c9 -2 25 -2 35 0 9 3 1 5 -18 5 -19 0 -27 -2 -17 -5z"/>
<path d="M3960 1035 c0 -2 10 -10 23 -16 20 -11 21 -11 8 4 -13 16 -31 23 -31
12z"/>
<path d="M4206 996 c-23 -33 -24 -37 -7 -21 23 20 45 54 39 60 -2 1 -16 -16
-32 -39z"/>
<path d="M1450 1017 c0 -18 22 -47 43 -57 19 -9 20 -9 7 2 -9 7 -24 24 -33 38
-9 13 -17 21 -17 17z"/>
<path d="M3750 1013 c8 -3 29 -12 47 -20 18 -8 38 -13 45 -10 9 4 8 6 -3 6 -9
1 -30 8 -45 16 -16 8 -36 15 -44 14 -13 0 -13 -1 0 -6z"/>
<path d="M4017 1006 c-4 -9 -1 -15 5 -13 6 1 13 -4 16 -12 3 -9 0 -11 -9 -6
-8 5 -11 4 -6 0 4 -5 16 -9 27 -10 20 -2 19 -1 -2 24 -13 14 -24 27 -24 29 -1
2 -4 -4 -7 -12z"/>
<path d="M3681 984 c-17 -14 -31 -33 -31 -42 1 -11 6 -8 16 10 8 15 27 34 42
42 15 9 22 15 15 16 -6 0 -25 -12 -42 -26z"/>
<path d="M1870 984 c0 -10 50 -60 50 -51 0 3 -11 18 -25 33 -14 15 -25 23 -25
18z"/>
<path d="M3920 977 c13 -7 30 -24 37 -37 8 -15 13 -19 13 -9 0 19 -41 59 -61
59 -8 0 -3 -6 11 -13z"/>
<path d="M1556 969 c3 -5 13 -9 22 -9 15 -1 15 -2 -2 -15 -11 -8 -15 -15 -10
-15 11 0 34 21 34 31 0 4 -11 9 -25 11 -13 3 -22 1 -19 -3z"/>
<path d="M1838 955 c5 -11 12 -27 15 -35 5 -13 6 -13 6 1 1 8 -6 24 -15 35
-15 19 -15 19 -6 -1z"/>
<path d="M1646 929 c-14 -17 -26 -35 -26 -41 0 -6 10 4 23 23 12 18 33 36 47
40 23 6 23 7 3 8 -12 1 -32 -12 -47 -30z"/>
<path d="M1736 953 c7 -4 14 -17 17 -28 5 -16 5 -15 4 4 -1 14 -9 26 -17 28
-10 3 -11 2 -4 -4z"/>
<path d="M4088 953 c7 -3 16 -2 19 1 4 3 -2 6 -13 5 -11 0 -14 -3 -6 -6z"/>
<path d="M4138 953 c7 -3 16 -2 19 1 4 3 -2 6 -13 5 -11 0 -14 -3 -6 -6z"/>
<path d="M1528 943 c7 -3 16 -2 19 1 4 3 -2 6 -13 5 -11 0 -14 -3 -6 -6z"/>
<path d="M2205 941 c28 -4 60 -13 73 -21 25 -16 62 -78 62 -104 0 -9 13 -22
28 -30 38 -20 55 -41 69 -90 l13 -41 -5 39 c-4 41 -42 91 -77 102 -10 3 -18
12 -18 20 0 30 -42 95 -73 114 -21 13 -48 19 -77 19 l-45 -2 50 -6z"/>
<path d="M4043 915 c0 -22 2 -30 4 -17 2 12 2 30 0 40 -3 9 -5 -1 -4 -23z"/>
<path d="M2125 930 c-3 -6 1 -7 9 -4 18 7 21 14 7 14 -6 0 -13 -4 -16 -10z"/>
<path d="M1706 921 c-4 -5 3 -7 14 -4 23 6 26 13 6 13 -8 0 -17 -4 -20 -9z"/>
<path d="M1923 880 c0 -25 2 -35 4 -22 2 12 2 32 0 45 -2 12 -4 2 -4 -23z"/>
<path d="M2089 903 c-13 -16 -12 -17 4 -4 16 13 21 21 13 21 -2 0 -10 -8 -17
-17z"/>
<path d="M3640 917 c0 -5 4 -17 10 -27 7 -13 4 -25 -12 -46 l-21 -29 27 26
c27 25 27 28 12 55 -8 16 -15 25 -16 21z"/>
<path d="M3806 888 c-22 -31 -19 -78 5 -108 l21 -25 -16 27 c-22 37 -20 84 4
108 11 11 16 20 11 20 -6 0 -17 -10 -25 -22z"/>
<path d="M3846 891 c-10 -11 -16 -26 -13 -33 4 -9 6 -7 6 4 1 9 9 21 18 27 10
5 15 12 12 15 -3 4 -14 -3 -23 -13z"/>
<path d="M3971 894 c0 -11 3 -14 6 -6 3 7 2 16 -1 19 -3 4 -6 -2 -5 -13z"/>
<path d="M3172 883 c-38 -19 -82 -68 -82 -91 1 -9 7 -3 14 14 25 57 107 96
170 80 14 -3 40 -19 58 -34 28 -23 38 -27 68 -21 l35 7 -37 -1 c-25 -1 -44 5
-60 20 -51 46 -107 55 -166 26z"/>
<path d="M1850 875 c0 -28 -38 -55 -77 -55 -43 0 -55 6 -71 35 -6 11 -12 14
-12 8 0 -7 9 -22 20 -33 29 -29 94 -27 125 5 22 21 34 55 20 55 -3 0 -5 -7 -5
-15z"/>
<path d="M2143 878 c-12 -6 -25 -18 -28 -26 -4 -12 -1 -12 15 3 11 10 40 22
63 26 41 6 41 7 7 7 -19 0 -45 -4 -57 -10z"/>
<path d="M3573 848 c-18 -22 -33 -50 -32 -62 1 -17 3 -15 9 8 5 16 21 42 36
57 15 16 26 31 23 33 -2 2 -19 -14 -36 -36z"/>
<path d="M2030 871 c-42 -7 -90 -26 -90 -37 0 -2 13 2 30 11 16 8 45 15 64 15
19 0 38 5 41 10 3 6 5 9 3 9 -2 -1 -23 -5 -48 -8z"/>
<path d="M2246 872 c6 -4 21 -23 33 -42 11 -19 21 -30 21 -25 0 18 -40 75 -52
75 -9 0 -10 -2 -2 -8z"/>
<path d="M1626 845 c5 -29 49 -85 66 -85 5 0 -3 11 -18 24 -16 13 -34 39 -41
57 -13 33 -13 33 -7 4z"/>
<path d="M3942 845 c-24 -27 -37 -30 -76 -15 -14 5 -26 7 -26 5 0 -11 55 -26
76 -21 12 3 29 17 38 31 21 32 16 32 -12 0z"/>
<path d="M4021 843 c-10 -26 -10 -27 4 -9 8 11 15 23 15 28 0 15 -7 8 -19 -19z"/>
<path d="M2670 840 c-10 -6 -2 -7 25 -3 49 7 58 13 19 13 -16 0 -36 -5 -44
-10z"/>
<path d="M2765 840 c27 -12 43 -12 25 0 -8 5 -22 9 -30 9 -10 0 -8 -3 5 -9z"/>
<path d="M3173 814 l-28 -26 32 21 c39 26 90 27 123 1 14 -11 29 -20 34 -20 6
0 -5 11 -24 25 -46 34 -100 34 -137 -1z"/>
<path d="M2075 823 c-43 -6 -52 -20 -10 -15 19 2 38 8 41 13 3 5 4 8 2 8 -2
-1 -16 -4 -33 -6z"/>
<path d="M2623 813 c-11 -10 -28 -34 -37 -53 -9 -19 -11 -26 -4 -16 7 11 26
34 42 53 31 36 30 43 -1 16z"/>
<path d="M3455 819 c11 -6 31 -23 43 -38 20 -22 22 -22 13 -4 -12 24 -49 53
-66 53 -5 0 -1 -5 10 -11z"/>
<path d="M1927 813 c-13 -13 -7 -84 9 -109 10 -14 30 -32 45 -40 30 -15 95
-19 102 -6 3 4 -14 5 -38 4 -36 -3 -48 1 -79 29 -35 30 -37 36 -34 81 1 26 3
48 2 48 0 0 -4 -3 -7 -7z"/>
<path d="M2832 792 c15 -18 29 -41 33 -52 4 -12 15 -20 28 -19 19 0 20 1 4 8
-10 3 -28 24 -40 46 -12 21 -29 41 -37 43 -8 3 -3 -8 12 -26z"/>
<path d="M1870 779 l-35 -31 31 16 c17 8 34 22 37 31 8 20 8 20 -33 -16z"/>
<path d="M3611 798 c-1 -26 48 -78 74 -78 14 0 32 11 44 26 19 25 21 25 21 6
0 -12 -16 -34 -37 -51 -45 -37 -34 -42 14 -5 24 18 33 33 33 55 0 36 -14 37
-36 4 -29 -44 -78 -27 -103 35 -6 16 -10 19 -10 8z"/>
<path d="M3965 779 c-34 -26 -46 -30 -84 -26 -27 3 -38 2 -30 -4 28 -18 76 -9
117 21 23 17 42 32 42 35 0 8 -3 6 -45 -26z"/>
<path d="M2006 785 c-3 -9 -6 -26 -5 -38 1 -14 4 -9 9 13 9 37 7 52 -4 25z"/>
<path d="M2738 783 c7 -3 16 -2 19 1 4 3 -2 6 -13 5 -11 0 -14 -3 -6 -6z"/>
<path d="M3407 770 c19 -11 35 -31 39 -47 10 -45 12 -50 13 -21 1 31 -43 88
-67 88 -11 0 -5 -8 15 -20z"/>
<path d="M2654 764 c-18 -14 -18 -15 4 -4 12 6 22 13 22 15 0 8 -5 6 -26 -11z"/>
<path d="M2784 761 c21 -23 26 -26 26 -11 0 5 -10 15 -22 21 -23 12 -23 12 -4
-10z"/>
<path d="M2335 750 c10 -11 20 -18 23 -15 7 6 -18 35 -31 35 -5 0 -2 -9 8 -20z"/>
<path d="M1763 743 c15 -2 37 -2 50 0 12 2 0 4 -28 4 -27 0 -38 -2 -22 -4z"/>
<path d="M3522 725 c0 -16 2 -22 5 -12 2 9 2 23 0 30 -3 6 -5 -1 -5 -18z"/>
<path d="M2530 730 c-8 -5 -10 -10 -5 -10 6 0 17 5 25 10 8 5 11 10 5 10 -5 0
-17 -5 -25 -10z"/>
<path d="M2817 715 c3 -8 11 -15 19 -15 7 0 28 -13 46 -29 26 -23 32 -36 31
-67 -1 -32 1 -35 8 -17 14 38 -8 80 -61 112 -30 19 -47 25 -43 16z"/>
<path d="M3550 723 c0 -12 28 -38 34 -32 2 2 -5 13 -15 23 -11 11 -19 15 -19
9z"/>
<path d="M2166 698 c-36 -58 -23 -112 37 -148 65 -40 190 -11 222 51 22 42 18
47 -8 8 -61 -92 -218 -92 -256 0 -12 27 -11 36 7 71 21 44 21 53 -2 18z"/>
<path d="M2480 698 c-11 -12 -20 -26 -20 -32 0 -5 1 -7 3 -5 1 2 13 16 26 32
29 32 21 37 -9 5z"/>
<path d="M2934 707 c10 -7 27 -24 38 -38 11 -13 16 -17 12 -9 -11 24 -46 60
-58 60 -5 0 -2 -6 8 -13z"/>
<path d="M3034 698 l-19 -23 25 20 c14 11 27 21 29 22 2 2 0 3 -6 3 -5 0 -18
-10 -29 -22z"/>
<path d="M3113 694 l-28 -25 33 22 c17 13 32 24 32 26 0 8 -11 1 -37 -23z"/>
<path d="M3320 710 c13 -9 13 -11 0 -20 -8 -5 -10 -10 -5 -10 6 0 17 5 25 10
13 9 13 11 0 20 -8 5 -19 10 -25 10 -5 0 -3 -5 5 -10z"/>
<path d="M2222 698 c-26 -26 -2 -98 34 -98 4 0 -2 7 -14 16 -24 17 -30 62 -10
82 7 7 10 12 7 12 -3 0 -10 -5 -17 -12z"/>
<path d="M2255 700 c3 -5 8 -10 11 -10 2 0 4 5 4 10 0 6 -5 10 -11 10 -5 0 -7
-4 -4 -10z"/>
<path d="M2604 699 c-17 -5 -38 -17 -45 -26 -13 -16 -13 -16 11 0 13 9 32 17
42 17 9 0 20 5 23 10 3 6 5 10 3 9 -2 0 -17 -5 -34 -10z"/>
<path d="M3279 693 c-13 -16 -12 -17 4 -4 16 13 21 21 13 21 -2 0 -10 -8 -17
-17z"/>
<path d="M2070 696 c0 -9 30 -14 35 -6 4 6 -3 10 -14 10 -12 0 -21 -2 -21 -4z"/>
<path d="M2371 684 c0 -11 3 -14 6 -6 3 7 2 16 -1 19 -3 4 -6 -2 -5 -13z"/>
<path d="M3421 643 c-30 -28 -65 -29 -91 -3 -11 11 -20 16 -20 11 0 -15 42
-41 67 -41 21 0 83 44 73 52 -3 2 -16 -6 -29 -19z"/>
<path d="M2352 639 c-7 -11 -23 -24 -35 -29 -14 -6 -16 -9 -6 -9 16 -1 66 45
58 54 -3 2 -10 -5 -17 -16z"/>
<path d="M3081 647 c-2 -33 29 -76 54 -77 5 0 0 7 -13 15 -12 9 -26 30 -31 48
-5 18 -10 24 -10 14z"/>
<path d="M3485 612 c-16 -19 -43 -41 -60 -48 -19 -9 -24 -13 -12 -14 18 0 116
85 107 93 -3 2 -18 -12 -35 -31z"/>
<path d="M2730 620 c-11 -11 -20 -26 -20 -32 0 -8 5 -6 11 4 5 10 19 24 32 33
12 8 16 15 9 15 -6 0 -21 -9 -32 -20z"/>
<path d="M2793 633 c4 -3 -1 -12 -10 -19 -15 -11 -14 -11 10 -7 22 4 25 8 16
19 -6 8 -14 14 -17 14 -3 0 -2 -3 1 -7z"/>
<path d="M2991 618 c-1 -16 4 -28 9 -28 6 0 10 -6 10 -13 0 -7 10 -18 23 -26
21 -13 21 -13 5 5 -9 10 -23 35 -31 54 -15 34 -15 34 -16 8z"/>
<path d="M3261 632 c-2 -34 50 -95 66 -78 3 2 -4 7 -15 10 -11 4 -27 23 -36
44 -8 20 -15 31 -15 24z"/>
<path d="M2541 619 c-1 -8 6 -24 15 -35 15 -19 15 -19 6 1 -5 11 -12 27 -15
35 -5 13 -6 13 -6 -1z"/>
<path d="M2465 593 c21 -46 61 -73 104 -72 l36 2 -42 6 c-40 7 -68 28 -101 77
-7 11 -6 5 3 -13z"/>
<path d="M3197 606 c-4 -11 -3 -15 4 -10 7 4 10 -1 7 -12 -2 -10 -21 -29 -43
-41 -22 -12 -35 -23 -30 -23 17 0 75 39 81 54 3 8 1 22 -4 31 -8 16 -9 16 -15
1z"/>
<path d="M2760 580 c0 -21 28 -60 43 -60 9 0 9 2 0 8 -6 4 -19 21 -27 37 -9
17 -16 23 -16 15z"/>
<path d="M3160 580 c-13 -8 -12 -10 3 -10 9 0 17 5 17 10 0 12 -1 12 -20 0z"/>
<path d="M2638 573 c7 -3 16 -2 19 1 4 3 -2 6 -13 5 -11 0 -14 -3 -6 -6z"/>
<path d="M2588 563 c6 -2 18 -2 25 0 6 3 1 5 -13 5 -14 0 -19 -2 -12 -5z"/>
<path d="M2701 554 c0 -11 3 -14 6 -6 3 7 2 16 -1 19 -3 4 -6 -2 -5 -13z"/>
<path d="M2626 545 c-11 -8 -15 -15 -9 -15 6 0 16 7 23 15 16 19 11 19 -14 0z"/>
<path d="M2870 539 c-19 -11 -28 -19 -19 -19 9 0 27 9 40 20 29 23 25 23 -21
-1z"/>
<path d="M2965 530 c-8 -16 -32 -39 -53 -49 -20 -11 -32 -20 -27 -21 21 0 75
41 90 70 8 16 13 30 11 30 -3 0 -12 -13 -21 -30z"/>
<path d="M3353 543 c9 -2 23 -2 30 0 6 3 -1 5 -18 5 -16 0 -22 -2 -12 -5z"/>
<path d="M3068 528 c6 -6 18 -8 28 -6 14 3 12 5 -9 10 -19 3 -25 2 -19 -4z"/>
<path d="M2719 503 c17 -32 63 -53 113 -51 39 1 40 2 8 5 -63 6 -81 13 -107
41 -22 23 -24 24 -14 5z"/>
</g>
</svg>
