<?xml version="1.0" standalone="no"?>
<!DOCTYPE svg PUBLIC "-//W3C//DTD SVG 20010904//EN"
 "http://www.w3.org/TR/2001/REC-SVG-20010904/DTD/svg10.dtd">
<svg version="1.0" xmlns="http://www.w3.org/2000/svg"
 width="650.000000pt" height="198.000000pt" viewBox="0 0 650.000000 198.000000"
 preserveAspectRatio="xMidYMid meet">
<metadata>
Created by potrace 1.16, written by Peter Selinger 2001-2019
</metadata>
<g transform="translate(0.000000,198.000000) scale(0.100000,-0.100000)"
fill="#000000" stroke="none">
<path d="M836 1344 c-10 -27 -7 -29 47 -28 69 2 69 2 61 15 -3 6 -24 9 -45 7
-27 -2 -39 0 -39 9 0 18 -17 16 -24 -3z"/>
<path d="M1382 1343 c-16 -30 -16 -30 19 -25 18 3 34 0 39 -8 5 -8 9 -7 13 4
5 12 0 16 -23 16 -19 0 -30 6 -32 18 -3 15 -5 14 -16 -5z"/>
<path d="M563 1342 c-63 -6 -32 -22 42 -22 41 0 75 4 75 9 0 10 -68 18 -117
13z"/>
<path d="M780 1330 c0 -5 5 -10 10 -10 6 0 10 5 10 10 0 6 -4 10 -10 10 -5 0
-10 -4 -10 -10z"/>
<path d="M1040 1331 c0 -5 32 -11 70 -13 51 -2 70 0 70 10 0 8 -21 12 -70 12
-38 0 -70 -4 -70 -9z"/>
<path d="M2126 1314 c-4 -10 -22 -14 -66 -14 -47 0 -60 -3 -60 -15 0 -12 14
-15 63 -17 l62 -2 -52 -3 c-38 -3 -53 -8 -53 -19 0 -15 12 -17 68 -14 17 1 32
-3 32 -9 0 -6 -29 -11 -67 -13 -42 -2 -68 -8 -71 -15 -3 -10 33 -13 157 -13
136 0 161 2 161 15 0 12 -15 15 -71 15 -48 0 -68 3 -64 11 4 6 27 9 53 7 38
-2 47 0 50 14 3 14 -7 18 -55 21 l-58 3 63 2 c48 2 62 5 62 17 0 12 -13 15
-60 15 -33 0 -60 4 -60 9 0 16 -28 20 -34 5z"/>
<path d="M3560 1310 c0 -17 -7 -20 -50 -20 -43 0 -50 -3 -50 -19 0 -17 7 -19
47 -18 29 1 48 -3 51 -11 4 -14 32 -17 32 -3 0 14 43 21 57 10 7 -7 25 -8 45
-3 18 4 46 8 63 8 20 1 31 7 33 19 3 14 -4 17 -47 17 -39 0 -51 4 -51 15 0 8
-2 15 -4 15 -2 0 -11 3 -20 6 -12 4 -16 0 -16 -15 0 -16 -6 -21 -25 -21 -14 0
-28 6 -31 14 -9 24 -34 28 -34 6z"/>
<path d="M4327 1310 c-4 -17 -14 -20 -61 -20 -43 0 -56 -3 -56 -15 0 -11 12
-15 45 -15 58 0 58 -13 0 -78 -36 -40 -42 -52 -31 -61 10 -9 16 -8 26 4 23 28
30 15 30 -60 0 -41 3 -75 8 -75 19 1 34 19 28 35 -11 30 13 45 71 45 60 0 82
-21 48 -46 -24 -18 -6 -39 24 -29 28 8 33 35 29 136 l-3 84 -77 3 c-57 2 -78
6 -78 16 0 21 24 26 116 26 68 0 84 3 84 15 0 12 -15 15 -78 15 -66 0 -79 3
-90 20 -7 11 -16 20 -21 20 -5 0 -11 -9 -14 -20z m121 -137 c3 -10 -14 -13
-62 -13 -61 0 -77 6 -59 24 12 12 116 2 121 -11z m2 -63 c0 -6 -28 -10 -65
-10 -37 0 -65 4 -65 10 0 6 28 10 65 10 37 0 65 -4 65 -10z"/>
<path d="M5090 1316 c0 -13 -12 -16 -60 -16 -47 0 -60 -3 -60 -15 0 -11 13
-15 54 -15 30 0 58 -4 61 -10 4 -6 -13 -10 -44 -10 -44 0 -51 -3 -51 -19 0
-17 5 -19 35 -14 19 3 42 2 52 -3 13 -6 -3 -10 -51 -14 -43 -3 -71 -10 -74
-17 -3 -10 32 -13 152 -13 132 0 156 2 156 15 0 12 -15 15 -72 15 -78 0 -85
16 -9 22 69 5 65 28 -4 28 -35 0 -54 4 -50 10 3 6 31 10 61 10 41 0 54 4 54
15 0 12 -13 15 -60 15 -41 0 -59 4 -57 12 1 6 -6 14 -15 16 -11 2 -18 -2 -18
-12z"/>
<path d="M2480 1307 c0 -7 -9 -30 -19 -50 -19 -37 -19 -38 0 -48 23 -12 26
-49 4 -49 -18 0 -20 -27 -3 -32 7 -3 11 -19 10 -41 l-3 -37 66 0 c37 0 65 -4
65 -10 0 -5 -4 -10 -10 -10 -5 0 -10 -7 -10 -15 0 -8 6 -15 14 -15 25 0 46 12
46 25 0 7 7 15 15 19 8 3 15 12 15 20 0 7 -7 16 -15 20 -22 8 -18 34 5 41 23
7 27 35 5 35 -11 0 -15 11 -15 40 l0 40 -75 0 c-43 0 -75 4 -75 10 0 6 35 10
86 10 76 0 85 2 82 18 -3 14 -12 16 -61 14 -41 -3 -65 1 -82 12 -29 19 -45 20
-45 3z m60 -106 c0 -5 3 -16 6 -25 4 -12 0 -16 -15 -16 -20 0 -30 28 -14 43 9
10 23 9 23 -2z m75 -16 c0 -13 -8 -21 -21 -23 -19 -3 -24 12 -15 46 1 2 9 2
19 0 9 -2 17 -12 17 -23z m-72 -76 c3 -13 0 -22 -9 -26 -20 -8 -36 10 -28 30
9 24 31 21 37 -4z m67 -4 c0 -18 -5 -25 -20 -25 -18 0 -21 13 -11 48 1 1 8 2
16 2 9 0 15 -9 15 -25z"/>
<path d="M2760 1300 c0 -19 7 -20 110 -20 61 0 110 -4 110 -9 0 -16 -30 -21
-122 -21 -67 0 -89 -3 -86 -12 3 -9 36 -14 107 -16 75 -2 101 -6 98 -15 -2 -8
-38 -13 -110 -15 -86 -2 -107 -6 -107 -17 0 -12 22 -15 125 -15 l125 0 0 80 0
80 -125 0 c-118 0 -125 -1 -125 -20z"/>
<path d="M3257 1289 c-19 -35 -14 -53 13 -44 29 9 34 -14 5 -25 -39 -15 -55
-12 -55 10 0 11 -7 20 -15 20 -12 0 -15 -16 -15 -82 0 -57 -3 -78 -10 -68 -5
8 -8 59 -6 113 3 89 2 97 -15 97 -16 0 -18 -8 -18 -62 0 -35 -1 -88 -2 -118
-2 -48 -3 -44 -8 29 -4 54 -10 86 -18 89 -10 3 -13 -22 -13 -103 l0 -107 45 6
c31 5 45 4 45 -4 0 -7 10 -9 28 -6 35 8 87 -7 87 -24 0 -22 26 -24 32 -1 3 14
16 23 39 27 20 4 34 12 34 21 0 8 -5 11 -11 8 -15 -10 -61 4 -54 15 3 6 15 10
26 10 27 0 19 24 -9 28 -27 4 -19 22 9 22 10 0 19 7 19 15 0 9 -9 15 -24 15
-13 0 -26 6 -29 13 -3 10 -9 10 -26 0 -11 -7 -30 -13 -41 -13 -11 0 -20 -7
-20 -15 0 -9 9 -15 25 -15 14 0 25 -4 25 -10 0 -5 -12 -10 -26 -10 -19 0 -25
-4 -22 -17 2 -10 11 -18 20 -18 9 0 20 -4 24 -8 4 -4 -7 -7 -24 -7 -18 0 -32
-4 -32 -10 0 -5 -4 -10 -10 -10 -6 0 -10 32 -10 75 0 74 5 86 27 64 8 -8 21
-6 46 6 33 15 37 15 67 0 30 -15 33 -15 45 2 12 16 10 19 -16 26 -34 9 -36 17
-9 42 31 28 24 35 -30 35 -27 0 -50 5 -50 10 0 21 -26 8 -43 -21z m83 -29 c0
-5 -4 -10 -9 -10 -6 0 -13 5 -16 10 -3 6 1 10 9 10 9 0 16 -4 16 -10z"/>
<path d="M3945 1183 l0 -138 -52 -3 c-38 -2 -53 -7 -53 -18 0 -11 26 -14 145
-15 80 -1 151 -2 157 -3 7 -1 14 7 16 16 3 14 -6 17 -50 20 -50 3 -53 5 -56
31 -3 23 0 27 21 27 22 0 28 8 46 62 26 77 26 88 1 88 -14 0 -20 -7 -21 -22 0
-13 -9 -45 -19 -73 -24 -67 -33 -43 -29 75 4 80 2 90 -13 90 -16 0 -18 -13
-18 -140 0 -133 -1 -140 -20 -140 -19 0 -20 7 -20 140 0 127 -2 140 -17 140
-16 0 -18 -13 -18 -137z"/>
<path d="M4584 1307 c-2 -7 -3 -80 -2 -162 3 -125 5 -150 18 -150 11 0 15 12
16 40 0 22 2 65 3 95 l1 55 20 -25 c24 -31 25 -56 3 -69 -22 -12 -5 -35 22
-29 35 6 41 34 18 82 -20 41 -21 49 -9 83 7 21 16 50 20 66 l6 27 -55 0 c-36
0 -57 -5 -61 -13z m66 -34 c0 -5 -5 -26 -11 -48 -11 -37 -12 -38 -20 -17 -11
30 -1 72 17 72 8 0 14 -3 14 -7z"/>
<path d="M4720 1318 c-4 -43 0 -311 4 -315 3 -3 19 0 36 7 34 14 41 40 10 40
-17 0 -20 7 -20 45 0 59 25 62 40 5 6 -23 24 -55 40 -73 28 -31 29 -32 47 -13
11 11 14 20 7 23 -6 2 -20 10 -30 18 -18 14 -18 15 6 34 22 18 23 20 7 26 -9
4 -24 2 -31 -5 -12 -9 -17 -7 -26 9 -10 19 -8 21 17 21 15 0 33 4 38 8 6 4 10
44 10 90 l0 82 -77 0 c-43 0 -78 -1 -78 -2z m120 -59 c0 -18 -5 -20 -42 -17
-31 2 -44 8 -46 21 -3 14 4 17 42 17 40 0 46 -3 46 -21z m0 -64 c0 -11 -12
-15 -45 -15 -33 0 -45 4 -45 15 0 11 12 15 45 15 33 0 45 -4 45 -15z"/>
<path d="M5371 1283 c-6 -21 -22 -55 -36 -75 -24 -36 -25 -37 -5 -51 15 -11
20 -27 22 -88 2 -58 6 -74 18 -74 12 0 16 24 21 130 3 72 9 138 13 148 10 21
25 22 32 2 4 -9 19 -15 40 -15 32 0 34 -2 34 -34 l0 -35 -52 -3 c-39 -2 -53
-7 -53 -18 0 -11 14 -16 50 -20 l50 -5 3 -47 c3 -43 1 -48 -21 -53 -13 -4 -29
-5 -37 -3 -8 2 -16 -5 -18 -14 -3 -16 7 -18 97 -18 83 0 99 2 95 14 -3 8 -22
16 -42 18 l-37 3 -3 53 -3 52 51 0 c44 0 51 3 48 18 -3 13 -14 17 -48 18 l-45
0 -3 42 -3 42 35 0 c20 0 36 3 36 8 -1 24 -21 30 -100 29 -47 -1 -95 2 -107 7
-19 7 -23 3 -32 -31z"/>
<path d="M6090 1305 c0 -12 22 -15 118 -17 l117 -3 3 -123 c2 -116 1 -123 -18
-130 -18 -7 -19 -10 -6 -27 13 -18 15 -18 40 -2 l26 17 0 150 0 150 -140 0
c-116 0 -140 -2 -140 -15z"/>
<path d="M545 1300 c-4 -6 17 -10 54 -10 34 0 61 4 61 10 0 6 -24 10 -54 10
-30 0 -58 -4 -61 -10z"/>
<path d="M1055 1300 c-4 -6 15 -10 49 -10 31 0 56 5 56 10 0 6 -22 10 -49 10
-28 0 -53 -4 -56 -10z"/>
<path d="M2385 1300 c-3 -6 1 -17 10 -26 12 -13 18 -14 30 -4 13 11 13 14 -2
26 -22 16 -30 17 -38 4z"/>
<path d="M5770 1291 c0 -10 -16 -42 -35 -71 -34 -50 -37 -70 -12 -70 13 0 29
22 64 91 28 57 29 69 3 69 -13 0 -20 -7 -20 -19z"/>
<path d="M5884 1278 c7 -36 51 -105 78 -121 12 -8 21 -7 32 2 13 11 10 17 -24
50 -23 22 -43 51 -46 69 -5 23 -12 32 -26 32 -18 0 -20 -5 -14 -32z"/>
<path d="M834 1289 c-3 -6 -1 -16 5 -22 8 -8 11 -8 11 1 0 16 67 16 73 0 3 -7
6 -3 6 10 1 20 -4 22 -43 22 -25 0 -48 -5 -52 -11z"/>
<path d="M1360 1289 c0 -6 8 -8 19 -4 11 3 22 1 26 -5 6 -10 -11 -14 -50 -12
-18 1 -18 0 3 -10 17 -8 28 -8 46 2 13 7 29 9 35 6 7 -4 9 -1 5 7 -9 24 -84
38 -84 16z"/>
<path d="M515 1270 c-4 -6 27 -10 84 -10 54 0 91 4 91 10 0 6 -35 10 -84 10
-47 0 -88 -4 -91 -10z"/>
<path d="M770 1270 c0 -5 5 -10 10 -10 6 0 10 5 10 10 0 6 -4 10 -10 10 -5 0
-10 -4 -10 -10z"/>
<path d="M881 1253 c13 -15 11 -16 -15 -11 -33 6 -56 1 -56 -13 0 -5 14 -9 31
-9 16 0 28 -4 25 -9 -3 -5 1 -11 9 -14 9 -4 12 -1 8 9 -4 11 4 14 31 14 20 0
36 5 36 10 0 10 -13 14 -36 11 -7 -1 -14 5 -18 14 -3 8 -11 15 -17 15 -8 0 -7
-5 2 -17z"/>
<path d="M1043 1264 c7 -8 128 -6 135 1 3 3 -28 5 -68 5 -40 0 -70 -3 -67 -6z"/>
<path d="M1384 1234 c-26 -11 -27 -12 -6 -13 12 -1 22 -6 22 -12 0 -5 -4 -8
-9 -4 -5 3 -12 1 -15 -4 -4 -5 4 -12 16 -14 20 -4 20 -4 -4 -6 -39 -2 -43 -18
-7 -23 38 -6 79 1 79 13 0 5 -10 10 -22 10 -17 1 -19 2 -5 6 9 2 17 9 17 14 0
6 -4 8 -9 4 -5 -3 -12 -1 -16 5 -3 5 3 10 15 10 12 0 19 4 16 9 -10 16 -42 18
-72 5z"/>
<path d="M3864 1218 c4 -18 9 -52 13 -75 6 -45 9 -48 31 -34 11 6 11 20 1 74
-10 56 -16 67 -32 67 -17 0 -19 -5 -13 -32z"/>
<path d="M6080 1233 c0 -16 11 -18 107 -16 89 1 109 4 111 17 3 14 -12 16
-107 16 -99 0 -111 -2 -111 -17z"/>
<path d="M540 1218 c0 -17 3 -19 12 -10 7 7 30 11 53 10 40 -1 40 -1 5 -5 -45
-6 -64 -23 -24 -23 49 0 74 11 74 31 0 17 -8 19 -60 19 -55 0 -60 -2 -60 -22z"/>
<path d="M1042 1229 c2 -7 10 -15 17 -17 8 -3 12 1 9 9 -2 7 -10 15 -17 17 -8
3 -12 -1 -9 -9z"/>
<path d="M1105 1230 c-3 -5 -1 -10 4 -10 6 0 11 5 11 10 0 6 -2 10 -4 10 -3 0
-8 -4 -11 -10z"/>
<path d="M1150 1220 c-10 -18 -9 -19 15 -8 27 12 33 28 10 28 -8 0 -19 -9 -25
-20z"/>
<path d="M2364 1218 c-6 -10 20 -38 37 -38 17 0 17 31 -1 40 -24 13 -27 13
-36 -2z"/>
<path d="M3503 1203 c-10 -16 -22 -31 -27 -34 -14 -10 1 -39 20 -39 16 0 16
-2 -1 -20 -26 -29 -13 -51 27 -44 73 12 77 14 71 30 -4 11 -14 13 -37 8 l-31
-6 38 40 c33 33 36 40 21 46 -10 4 -24 0 -34 -9 -23 -21 -33 -7 -16 21 14 21
12 34 -5 34 -5 0 -16 -12 -26 -27z"/>
<path d="M3622 1178 c-11 -24 -17 -46 -15 -50 9 -16 30 -7 41 18 11 22 17 25
55 22 l42 -3 -3 -60 c-5 -72 -6 -75 -38 -75 -33 0 -27 -24 7 -28 44 -5 56 16
62 111 l6 87 -55 0 c-34 0 -53 4 -49 10 3 6 -3 10 -14 10 -14 0 -26 -13 -39
-42z"/>
<path d="M771 1176 c-8 -9 -11 -19 -7 -23 9 -9 29 13 24 27 -2 8 -8 7 -17 -4z"/>
<path d="M1085 1180 c-12 -4 -26 -14 -33 -22 -10 -13 -7 -14 23 -4 19 6 35 17
35 23 0 7 -1 13 -2 12 -2 0 -12 -4 -23 -9z"/>
<path d="M1136 1181 c-3 -5 8 -16 25 -25 34 -17 36 -1 2 21 -13 9 -23 10 -27
4z"/>
<path d="M1303 1183 c-25 -9 -14 -30 12 -25 14 2 25 8 25 12 0 11 -22 18 -37
13z"/>
<path d="M5800 1153 c-7 -21 -25 -55 -41 -75 -49 -63 -43 -68 66 -61 69 4 95
3 95 -5 0 -14 10 -15 28 -3 19 11 -26 103 -48 99 -9 -2 -14 -12 -12 -25 3 -19
-3 -23 -43 -29 -25 -3 -48 -4 -51 -1 -3 3 11 31 31 63 28 44 34 59 23 65 -25
16 -36 9 -48 -28z"/>
<path d="M6100 1114 c0 -62 3 -74 16 -74 9 0 22 8 29 17 11 15 19 16 65 5 28
-7 55 -10 58 -8 4 2 7 33 7 68 l0 63 -87 2 -88 2 0 -75z m140 10 c0 -24 -2
-25 -52 -22 -46 3 -53 6 -56 26 -3 21 0 22 52 22 53 0 56 -1 56 -26z"/>
<path d="M541 1164 c0 -11 3 -14 6 -6 3 7 2 16 -1 19 -3 4 -6 -2 -5 -13z"/>
<path d="M820 1170 c0 -5 22 -10 49 -10 28 0 53 -4 56 -10 3 -5 10 -10 16 -10
5 0 4 9 -3 20 -10 16 -24 20 -65 20 -29 0 -53 -4 -53 -10z"/>
<path d="M578 1163 c12 -2 32 -2 45 0 12 2 2 4 -23 4 -25 0 -35 -2 -22 -4z"/>
<path d="M2032 1160 c-4 -3 -6 -18 -6 -35 1 -16 2 -54 3 -82 1 -40 5 -53 16
-53 9 0 15 9 15 24 0 30 16 36 92 36 49 0 58 -2 49 -13 -8 -10 -7 -18 2 -32
12 -15 16 -16 35 -4 19 12 22 23 22 89 l0 75 -111 0 c-61 0 -114 -2 -117 -5z
m168 -34 c14 -2 -12 -4 -58 -5 -46 0 -81 2 -79 7 5 6 77 6 137 -2z m16 -44
c-5 -8 -137 -5 -145 4 -2 2 30 4 73 4 42 0 75 -4 72 -8z"/>
<path d="M2860 1134 c0 -36 -41 -83 -81 -94 -41 -11 -50 -26 -23 -37 22 -8 93
17 109 39 12 18 14 18 49 -6 46 -31 92 -42 111 -26 24 20 18 27 -26 33 -45 6
-99 49 -99 78 0 9 -7 20 -16 23 -22 9 -24 8 -24 -10z"/>
<path d="M4991 1095 c2 -43 6 -55 18 -56 9 0 0 -6 -19 -14 l-35 -13 28 -7 c15
-4 39 -4 53 -1 32 8 84 58 84 80 0 26 -28 18 -42 -11 -7 -15 -21 -29 -31 -31
-14 -3 -17 4 -17 38 l0 41 78 -3 77 -3 0 -30 c0 -23 -5 -30 -20 -30 -11 0 -26
-4 -34 -9 -10 -6 -1 -14 35 -27 48 -19 74 -19 74 -1 0 5 -10 14 -22 20 -13 6
-17 11 -10 11 8 1 12 18 12 51 l0 50 -115 0 -116 0 2 -55z"/>
<path d="M2394 1113 c-4 -16 -13 -41 -21 -57 -13 -25 -13 -30 1 -44 13 -13 16
-13 20 -1 2 8 11 36 20 63 9 27 13 52 10 57 -10 17 -24 9 -30 -18z"/>
<path d="M2770 1110 c-17 -31 4 -52 25 -24 8 10 13 23 12 28 -6 19 -26 17 -37
-4z"/>
<path d="M2972 1118 c-15 -15 -16 -38 -1 -38 16 0 41 29 34 40 -8 13 -18 13
-33 -2z"/>
<path d="M3660 1112 c0 -20 26 -41 39 -33 12 8 12 12 2 25 -14 17 -41 22 -41
8z"/>
<path d="M3518 1037 c-36 -9 -45 -15 -39 -25 7 -11 18 -11 65 -1 32 8 56 19
56 26 0 15 -18 15 -82 0z"/>
<path d="M443 955 c8 -48 58 -126 114 -175 42 -37 78 -53 260 -120 35 -12 83
-40 108 -62 25 -22 48 -39 50 -37 8 9 -25 150 -44 188 -51 99 -138 156 -263
172 -104 13 -127 18 -182 46 l-49 25 6 -37z m259 -105 c93 -34 158 -82 192
-141 17 -30 12 -27 -40 22 -67 64 -91 77 -192 112 -39 14 -79 31 -89 37 -31
20 32 5 129 -30z"/>
<path d="M1482 962 c-30 -13 -85 -28 -124 -33 -230 -29 -318 -114 -353 -339
l-7 -45 24 26 c41 44 100 76 209 114 118 41 185 80 234 137 40 47 77 123 73
147 -3 16 -8 15 -56 -7z m-75 -83 c-22 -11 -65 -29 -97 -39 -87 -28 -118 -47
-189 -114 l-65 -61 35 49 c51 73 102 107 218 148 118 41 156 48 98 17z"/>
<path d="M1990 830 c-25 -25 -27 -90 -2 -118 12 -15 33 -21 74 -24 42 -3 55
-2 48 7 -5 6 -5 16 0 25 16 26 11 76 -11 104 -26 33 -79 36 -109 6z m92 -7
c10 -9 18 -30 18 -49 0 -48 -8 -63 -32 -56 -14 3 -19 1 -14 -6 5 -8 -2 -12
-18 -12 -50 0 -72 81 -35 127 16 18 59 16 81 -4z"/>
<path d="M2472 770 c0 -76 1 -80 9 -41 10 52 20 64 45 59 15 -2 20 -15 25 -53
l6 -50 1 52 c2 55 -12 74 -53 70 -12 -1 -21 7 -26 23 -4 15 -7 -9 -7 -60z"/>
<path d="M3304 828 c-11 -29 -6 -128 7 -128 8 0 15 68 10 114 -1 11 4 23 11
28 10 6 9 8 -3 8 -9 0 -20 -10 -25 -22z"/>
<path d="M3831 768 c1 -56 4 -72 8 -48 6 32 9 35 49 41 48 6 65 23 55 54 -8
28 -22 35 -70 35 l-43 0 1 -82z m83 66 c26 -10 20 -53 -8 -60 -50 -12 -78 11
-62 52 6 14 42 19 70 8z"/>
<path d="M3982 770 l0 -85 12 55 c7 30 9 57 5 60 -4 3 -9 16 -12 30 -2 14 -4
-13 -5 -60z"/>
<path d="M5403 770 c0 -47 2 -66 4 -42 2 23 2 61 0 85 -2 23 -4 4 -4 -43z"/>
<path d="M5536 828 c-16 -25 -19 -40 -17 -80 1 -36 26 -58 65 -58 35 0 76 24
63 37 -5 4 -13 0 -18 -10 -10 -18 -54 -23 -77 -9 -7 5 -15 25 -19 45 -11 68
48 114 92 71 9 -9 18 -14 21 -11 12 11 -30 37 -61 37 -25 0 -39 -6 -49 -22z"/>
<path d="M6022 773 l-2 -83 48 1 47 2 -40 6 -40 6 -6 75 -5 75 -2 -82z"/>
<path d="M2852 768 l3 -73 50 -1 c45 -1 46 -1 8 3 l-43 4 0 70 c0 41 -4 69
-10 69 -7 0 -10 -27 -8 -72z"/>
<path d="M5038 823 c-3 -10 -3 -44 0 -76 3 -44 8 -57 21 -57 12 0 13 2 3 8 -8
6 -12 29 -10 70 2 61 -5 89 -14 55z"/>
<path d="M6290 821 c0 -19 -4 -22 -22 -18 l-23 6 23 -18 c33 -24 28 -84 -7
-89 -13 -2 -28 2 -32 10 -13 19 -11 62 3 76 9 9 9 12 0 12 -17 0 -26 -48 -16
-79 7 -21 17 -27 46 -29 l36 -3 4 68 c2 37 0 72 -4 78 -4 5 -8 -1 -8 -14z"/>
<path d="M6148 813 c-6 -31 7 -116 18 -120 7 -3 9 11 4 42 -4 25 -3 48 2 51 5
3 4 11 -1 18 -6 7 -8 16 -4 19 3 4 1 7 -5 7 -6 0 -12 -8 -14 -17z"/>
<path d="M2245 801 c-3 -5 5 -11 17 -13 19 -2 24 -11 29 -48 l6 -45 1 47 c2
37 -2 49 -17 58 -24 12 -28 12 -36 1z"/>
<path d="M2346 789 c-33 -48 -10 -99 46 -99 32 0 34 -16 5 -34 -12 -8 -23 -7
-38 2 -18 11 -20 11 -17 0 6 -17 55 -23 74 -7 19 15 20 149 2 149 -7 0 -23 3
-34 6 -15 4 -26 -1 -38 -17z m74 -44 c0 -25 -18 -45 -41 -45 -37 0 -49 62 -17
84 20 14 24 14 40 -1 10 -9 18 -26 18 -38z"/>
<path d="M3094 795 c11 -8 22 -12 25 -9 6 6 -19 24 -34 24 -5 -1 -1 -7 9 -15z"/>
<path d="M3177 792 c-37 -40 -11 -109 37 -100 31 6 43 -7 25 -28 -8 -10 -24
-14 -40 -12 -16 3 -26 1 -23 -4 9 -14 52 -9 68 8 11 11 16 35 16 80 0 60 -1
64 -22 64 -13 0 -18 -4 -12 -8 32 -22 20 -92 -15 -92 -11 0 -25 9 -31 20 -13
24 -3 70 16 70 8 0 14 5 14 10 0 16 -15 12 -33 -8z"/>
<path d="M3415 798 c27 -15 36 -30 25 -43 -7 -8 -5 -12 5 -12 23 0 18 34 -7
51 -12 9 -27 16 -33 16 -5 0 -1 -6 10 -12z"/>
<path d="M3523 803 c-27 -5 -34 -23 -25 -70 l7 -38 5 45 c4 40 8 45 33 48 26
3 27 2 27 -47 0 -28 5 -51 10 -51 17 0 12 87 -6 104 -8 9 -18 15 -22 15 -4 -1
-17 -4 -29 -6z"/>
<path d="M3642 795 c-24 -17 -29 -54 -11 -86 8 -15 19 -20 42 -17 36 3 44 -17
15 -36 -14 -8 -23 -8 -39 2 -18 11 -20 11 -17 0 7 -19 53 -21 72 -3 22 22 23
145 2 145 -8 0 -20 2 -28 5 -7 3 -23 -2 -36 -10z m62 -31 c15 -59 -48 -88 -68
-32 -8 21 -6 32 8 47 22 24 52 17 60 -15z"/>
<path d="M4026 801 c-3 -5 3 -11 14 -14 15 -4 20 -16 23 -53 l3 -49 2 51 c2
57 -23 96 -42 65z"/>
<path d="M4167 798 c18 -9 22 -18 20 -56 -1 -25 3 -47 8 -49 13 -4 6 88 -7
105 -6 6 -18 12 -27 11 -12 0 -10 -3 6 -11z"/>
<path d="M4263 800 c-18 -7 -21 -17 -21 -60 -1 -29 3 -48 9 -45 5 4 9 24 9 47
0 31 4 41 20 45 11 3 20 9 20 14 0 11 -8 11 -37 -1z"/>
<path d="M4343 803 c-21 -4 -23 -10 -23 -61 0 -63 17 -61 22 3 3 35 6 40 28
40 23 0 26 -5 31 -50 l5 -50 5 50 c4 45 6 50 29 50 23 0 26 -5 31 -50 l6 -50
1 51 c2 60 -14 82 -47 64 -15 -7 -27 -8 -40 0 -11 5 -21 9 -23 9 -2 -1 -13 -4
-25 -6z"/>
<path d="M4577 792 c16 -13 20 -26 18 -54 -2 -21 1 -40 6 -44 14 -8 11 90 -3
104 -7 7 -19 12 -27 12 -12 0 -11 -5 6 -18z"/>
<path d="M4679 803 c-37 -9 -42 -84 -8 -106 19 -12 69 -1 69 14 0 8 -4 8 -14
-1 -8 -6 -25 -10 -38 -8 -18 2 -24 10 -26 34 -4 40 21 68 48 54 28 -15 38 -11
16 5 -11 8 -22 14 -25 14 -3 -1 -13 -3 -22 -6z"/>
<path d="M4787 798 c-26 -20 -32 -71 -12 -92 21 -21 76 -18 83 4 4 13 3 13
-11 2 -9 -8 -26 -12 -39 -10 -20 3 -23 9 -23 43 0 38 2 40 30 40 22 0 30 -5
30 -17 0 -19 17 -26 23 -9 4 13 -34 51 -51 51 -7 0 -21 -6 -30 -12z"/>
<path d="M5200 801 c0 -10 30 -24 37 -17 3 2 -5 9 -16 16 -12 6 -21 7 -21 1z"/>
<path d="M5284 795 c-22 -17 -12 -20 18 -4 16 9 24 8 36 -5 14 -14 14 -16 -1
-22 -20 -7 -23 -25 -5 -21 8 1 12 -8 10 -25 -2 -16 1 -28 7 -28 15 0 14 93 -1
108 -16 16 -40 15 -64 -3z"/>
<path d="M2163 745 c0 -33 2 -45 4 -27 2 18 2 45 0 60 -2 15 -4 0 -4 -33z"/>
<path d="M2210 745 c0 -32 2 -56 4 -54 8 7 10 98 3 105 -4 4 -7 -19 -7 -51z"/>
<path d="M2605 790 c-8 -13 5 -13 25 0 13 8 13 10 -2 10 -9 0 -20 -4 -23 -10z"/>
<path d="M2666 789 c6 -8 11 -31 10 -52 -1 -21 2 -41 7 -44 4 -3 7 19 5 48 -2
36 -8 54 -18 57 -12 4 -13 2 -4 -9z"/>
<path d="M2980 745 c0 -35 4 -54 10 -50 6 3 10 26 10 50 0 24 -4 47 -10 50 -6
4 -10 -15 -10 -50z"/>
<path d="M3040 748 c0 -28 2 -49 4 -47 8 9 13 99 5 99 -5 0 -9 -23 -9 -52z"/>
<path d="M3372 788 c-17 -17 -15 -73 2 -87 19 -16 68 -10 74 7 3 11 1 11 -17
0 -15 -9 -26 -10 -38 -2 -24 15 -28 34 -6 34 14 0 15 2 4 9 -8 5 -11 16 -6 30
7 24 4 26 -13 9z"/>
<path d="M4120 789 c0 -5 5 -7 10 -4 6 3 10 8 10 11 0 2 -4 4 -10 4 -5 0 -10
-5 -10 -11z"/>
<path d="M4525 789 c-11 -17 1 -21 15 -4 8 9 8 15 2 15 -6 0 -14 -5 -17 -11z"/>
<path d="M4904 750 c1 -54 2 -55 31 -57 20 -1 23 0 8 4 -23 4 -28 17 -37 78
-2 17 -3 5 -2 -25z"/>
<path d="M4978 749 c-1 -28 0 -53 5 -56 4 -2 7 21 7 51 0 70 -7 73 -12 5z"/>
<path d="M5103 745 c0 -33 2 -45 4 -27 2 18 2 45 0 60 -2 15 -4 0 -4 -33z"/>
<path d="M5150 776 c-15 -39 4 -86 35 -86 6 1 2 5 -7 11 -21 12 -24 69 -6 87
9 9 9 12 0 12 -7 0 -17 -11 -22 -24z"/>
<path d="M5690 774 c-6 -14 -10 -31 -10 -39 0 -16 27 -45 43 -45 6 0 3 6 -7
13 -19 14 -23 40 -12 75 10 31 -2 28 -14 -4z"/>
<path d="M5765 774 c15 -29 10 -52 -13 -71 -9 -7 -11 -13 -5 -13 20 0 43 30
43 55 0 13 -7 31 -16 39 -22 23 -25 20 -9 -10z"/>
<path d="M2730 741 c0 -22 5 -43 10 -46 6 -4 10 12 10 39 0 25 -4 46 -10 46
-5 0 -10 -18 -10 -39z"/>
<path d="M3110 736 c0 -19 5 -38 10 -41 6 -4 10 10 10 34 0 23 -4 41 -10 41
-5 0 -10 -15 -10 -34z"/>
<path d="M4137 748 c-21 -7 -27 -16 -25 -31 2 -12 11 -23 21 -23 12 -1 13 -1
2 3 -23 7 -18 32 10 43 14 5 25 12 25 15 0 3 -1 5 -2 4 -2 0 -16 -5 -31 -11z"/>
<path d="M4553 753 c-12 -2 -26 -10 -32 -17 -15 -18 -3 -46 18 -45 10 0 11 2
4 6 -22 8 -14 33 12 43 14 5 25 12 25 15 0 3 -1 4 -2 4 -2 -1 -13 -4 -25 -6z"/>
<path d="M4800 750 c0 -5 7 -7 15 -4 8 4 15 8 15 10 0 2 -7 4 -15 4 -8 0 -15
-4 -15 -10z"/>
<path d="M2602 733 c-13 -25 -4 -43 21 -43 20 0 20 0 1 14 -19 15 -19 15 1 30
18 13 18 15 3 16 -10 0 -21 -8 -26 -17z"/>
<path d="M5270 735 c-20 -24 -5 -45 32 -44 30 2 31 2 6 6 -32 5 -37 27 -10 42
15 9 15 10 1 11 -9 0 -22 -7 -29 -15z"/>
<path d="M5212 705 c-7 -8 -9 -15 -4 -15 5 0 15 7 22 15 16 19 -1 19 -18 0z"/>
</g>
</svg>
